<svg width="234" height="76" viewBox="0 0 234 76" fill="none" xmlns="http://www.w3.org/2000/svg">
<path d="M18.3758 38.3311C18.1775 38.3311 17.7774 38.364 17.5774 38.4307C17.3625 38.5023 17.1282 38.5638 16.8867 38.6305C16.6757 38.6887 16.4789 38.7636 16.2789 38.8302C16.0789 38.8969 15.8796 38.9633 15.5552 38.9886C15.323 39.0066 15.1304 39.1132 14.889 39.1798C14.6668 39.2412 14.4312 39.263 14.1898 39.2882C13.9745 39.3107 13.4194 39.3799 12.9414 39.4296C12.6757 39.4572 12.3186 39.5297 11.9923 39.6208C11.7487 39.6889 11.4516 39.7624 10.9859 39.7877C10.7086 39.8027 10.4528 39.9292 10.2275 40.0204C9.96713 40.1258 9.65366 40.145 9.35375 40.1872C9.11547 40.2207 8.88753 40.3118 8.63781 40.337C8.36226 40.3649 7.97357 40.4786 7.6804 40.5283C7.40171 40.5755 7.07359 40.6614 6.81488 40.7198C6.49681 40.7917 6.29048 40.8112 6.02428 40.8697C5.67993 40.9453 5.40848 40.978 5.19148 41.0277C4.97065 41.0783 4.70927 41.1608 4.45082 41.2275C4.212 41.2891 3.94314 41.3107 3.71016 41.3691C3.35352 41.4586 3.14405 41.4605 2.86137 41.5189C2.45225 41.6035 2.21211 41.6103 1.96214 41.6688C1.76362 41.6773 1.59531 41.7102 1.49567 41.7684C1.44548 41.7936 1.39603 41.8101 1.34509 41.8271" stroke="#0CDF1E" stroke-linecap="round"/>
<path d="M1.29517 42.0768C1.60881 42.0768 2.24309 42.1097 2.65038 42.135C2.9447 42.1532 3.24196 42.2096 3.52464 42.2681C3.93376 42.3526 4.30575 42.3265 4.64037 42.3762C4.89651 42.4142 5.25467 42.4763 5.5396 42.526C5.75854 42.5642 5.98884 42.6421 6.18062 42.7423C6.48981 42.9037 6.27302 43.5246 6.27277 43.6078C6.27221 43.7937 6.6381 43.7579 7.00394 43.7831C7.24447 43.7997 7.76682 43.8747 8.31794 43.9162C9.43231 44 9.66766 43.8747 9.88467 43.825C10.2436 43.7428 10.7834 43.7419 11.2404 43.7167C11.9452 43.6778 12.9315 43.6585 13.4926 43.6335C14.0038 43.6108 14.9766 43.625 15.5023 43.6333C16.0778 43.6423 16.4415 43.675 16.9407 43.6832C17.1774 43.6871 17.9193 43.7249 18.9928 43.7332C19.69 43.7385 20.2227 43.8078 20.5471 43.833C20.8568 43.8571 21.2215 43.9077 22.0434 43.9329C22.2716 43.9399 22.4202 43.9746 22.5947 43.9829C22.7221 43.9889 23.6773 44.0246 25.0837 44.0328C26.0974 44.0388 26.965 44.1075 27.2894 44.1327C27.4166 44.1426 27.7456 44.1744 28.1949 44.1826C28.4147 44.1867 29.1071 44.2243 30.1057 44.2161C30.4616 44.2132 30.511 44.1914 30.9403 44.1829C32.1771 44.1744 33.0586 44.1579 33.183 44.1329C33.2579 44.1245 33.3568 44.1245 33.4587 44.1245" stroke="#0CDF1E" stroke-linecap="round"/>
<path d="M33.109 44.0745C33.2414 44.091 33.5076 44.1574 33.7488 44.2159C33.9659 44.2685 34.1573 44.2408 34.6031 44.2658C35.7393 44.3295 36.5546 44.2578 36.7284 44.2328C37.3147 44.1486 37.553 44.1414 37.8359 44.1162C38.1858 44.085 38.6847 44.0416 38.9596 43.9831C39.2783 43.9154 39.5837 43.8917 39.9747 43.8665C40.3181 43.8444 40.6824 43.7918 40.9906 43.7334C41.2459 43.685 41.6793 43.675 42.0146 43.6253C42.3799 43.5712 42.7471 43.5421 43.0715 43.5169C43.3196 43.4976 44.0406 43.4253 44.5945 43.3838C45.1105 43.3452 45.3771 43.2924 46.3485 43.2672C46.9914 43.2505 47.6915 43.1925 48.6459 43.1673C49.0446 43.1568 49.3056 43.0427 50.0453 43.0175C50.4403 43.004 50.738 42.9428 51.2282 42.9176C51.6048 42.8982 52.0365 42.8429 52.3195 42.8177C52.6043 42.7923 52.9355 42.743 53.152 42.6764C53.5205 42.5629 53.9344 42.5932 54.2006 42.5348C54.5273 42.463 54.8983 42.4763 55.1997 42.4349C55.4816 42.3961 56.1768 42.3764 56.714 42.335C57.0599 42.3083 57.331 42.31 57.5955 42.285C58.187 42.2292 58.6295 42.2601 59.4214 42.2351C60.1635 42.2117 61.5977 42.2266 62.3693 42.2349C63.3415 42.2452 63.524 42.293 64.2994 42.318C65.025 42.3414 66.4262 42.3265 67.1726 42.3183C68.1183 42.2766 68.3685 42.2601 68.4928 42.2351C68.5678 42.2266 68.6666 42.2266 68.7685 42.2266" stroke="#0CDF1E" stroke-linecap="round"/>
<path d="M69.218 42.1767C69.251 42.1767 70.1415 42.1767 71.4897 42.1684C72.4118 42.1628 73.2454 42.0938 73.7526 42.0686C74.0803 42.0523 74.4441 41.9939 74.7767 41.9355C75.4018 41.8257 75.7426 41.8271 76.0091 41.7856C76.4872 41.7113 76.7585 41.6942 77.1485 41.6358C77.916 41.5208 78.2887 41.5774 79.1255 41.5359C79.7109 41.5069 80.8159 41.5274 81.4259 41.5357C82.2866 41.5473 82.5519 41.6103 83.5395 41.6356C83.7511 41.641 83.8005 41.6603 84.4275 41.6688C85.0545 41.6773 86.2577 41.6773 86.9104 41.669C87.6295 41.6599 88.3233 41.6273 89.297 41.6191C90.0754 41.6125 90.793 41.5609 91.3789 41.5359C91.9148 41.5131 92.9371 41.5274 93.4882 41.5192C94.3878 41.5057 94.9878 41.4445 95.2707 41.4193C95.8331 41.3692 96.7358 41.3446 97.027 41.3194C97.3205 41.294 97.5848 41.2447 98.4895 41.2195C98.7347 41.2127 99.213 41.1778 99.887 41.1696C100.679 41.1599 101.68 41.0949 102.378 41.0697C102.699 41.0581 102.962 40.995 104.132 40.9698C104.71 40.9574 105.342 40.8951 105.75 40.8699C105.91 40.86 106.751 40.8282 107.949 40.82C108.638 40.7783 109.039 40.7618 109.205 40.7368C109.305 40.7283 109.436 40.7283 109.572 40.7283" stroke="#0CDF1E" stroke-linecap="round"/>
<path d="M107.574 41.028C107.938 41.028 108.738 40.995 109.038 40.9366C109.562 40.8344 109.903 40.8781 110.228 40.8367C110.717 40.7745 110.953 40.7453 111.211 40.6869C111.61 40.5965 111.852 40.6284 112.118 40.5787C112.417 40.5231 112.718 40.4956 113.058 40.4371C113.56 40.351 113.832 40.3787 114.099 40.3373C114.463 40.2808 115.489 40.2788 116.205 40.2374C116.576 40.2159 116.863 40.2124 117.713 40.1874C118.513 40.1639 120.062 40.1789 120.893 40.1872C121.724 40.1954 121.79 40.2119 122.607 40.2204C123.424 40.2289 124.99 40.2289 125.829 40.2371C126.669 40.2454 126.735 40.2618 127.098 40.2703C128.121 40.2942 128.85 40.2953 129.213 40.3203C130.102 40.3813 130.748 40.3452 130.996 40.3702C131.538 40.4248 131.979 40.3952 132.491 40.4202C133.694 40.4788 134.56 40.4451 134.717 40.4701C135.089 40.529 136.182 40.5285 136.948 40.57C137.307 40.5894 137.572 40.6284 137.88 40.6699C138.55 40.7601 138.854 40.7613 139.171 40.7865C139.57 40.8183 140.169 40.8612 140.419 40.9196C140.795 41.0074 141.101 41.0609 141.534 41.1358C142.019 41.2197 142.417 41.2607 142.684 41.3274C142.95 41.3941 143.183 41.4605 143.474 41.4939C143.75 41.5256 143.965 41.6273 144.282 41.7184C144.579 41.8042 144.814 41.86 145.089 41.9349C145.405 42.0209 145.663 42.1097 145.93 42.135C146.18 42.2096 146.445 42.2766 146.688 42.3345C146.746 42.3595 146.812 42.3924 146.98 42.4264" stroke="#0CDF1E" stroke-linecap="round"/>
<path d="M145.282 41.9769C145.711 41.9769 146.579 42.0428 146.821 42.0932C147.056 42.1423 147.278 42.2426 147.487 42.3262C147.734 42.4256 147.978 42.4593 148.302 42.4845C148.534 42.5026 148.793 42.5762 149.076 42.6176C149.325 42.654 149.526 42.709 149.767 42.784C150 42.856 150.225 42.9418 150.467 42.9922C150.693 43.0395 150.907 43.1256 151.124 43.2167C151.321 43.2995 151.524 43.3583 151.765 43.3918C151.994 43.4235 152.239 43.591 152.473 43.6747C152.671 43.7457 152.872 43.8408 153.08 43.9326C153.337 44.0457 153.571 44.1074 153.78 44.1741C154.018 44.2506 154.254 44.3072 154.471 44.4153C154.676 44.5176 154.953 44.5569 155.17 44.6236C155.371 44.6855 155.602 44.7567 155.827 44.8566C156.053 44.9567 156.268 45.0064 156.493 45.1228C156.814 45.2888 157.067 45.3391 157.35 45.4309C157.595 45.5105 157.849 45.6387 158.116 45.7224C158.363 45.7999 158.566 45.8884 158.857 45.9389C159.145 45.9888 159.365 46.1381 159.656 46.2218C159.913 46.2956 160.114 46.3549 160.314 46.4216C160.544 46.4982 160.813 46.5547 161.096 46.6213C161.317 46.6734 161.578 46.7874 161.895 46.8711C162.13 46.933 162.394 47.0042 162.661 47.104C162.948 47.2117 163.293 47.2709 163.56 47.3538C163.819 47.4343 164.059 47.5036 164.301 47.5288C164.537 47.5534 164.792 47.7034 165.1 47.77C165.427 47.8409 165.856 47.9201 166.124 48.003C166.396 48.0875 166.738 48.07 167.015 48.1196C167.337 48.1777 167.705 48.2028 167.955 48.2612C168.216 48.3223 168.685 48.3197 169.103 48.3694C169.441 48.4095 169.835 48.4695 170.161 48.5192C170.486 48.5687 170.752 48.6023 170.993 48.6276C171.24 48.6534 171.567 48.7192 171.851 48.8021C172.093 48.8729 172.366 48.869 172.592 48.9767C172.805 49.0782 172.949 49.3175 173.149 49.4264C173.356 49.5391 173.549 49.6512 173.749 49.7593C173.936 49.8606 174.098 50.0337 174.298 50.1671C174.525 50.3185 174.747 50.5002 174.947 50.6166C175.163 50.7422 175.347 50.9327 175.547 51.0661C175.597 51.0995 175.646 51.1325 175.696 51.1659C175.747 51.1994 175.796 51.2324 175.947 51.3662" stroke="#0CDF1E" stroke-linecap="round"/>
<path d="M175.647 51.7158C175.747 51.7817 175.979 51.9815 176.237 52.1978C176.442 52.3691 176.645 52.5309 176.845 52.6642C177.045 52.7976 177.244 52.9634 177.453 53.1137C177.677 53.2753 177.894 53.3799 178.094 53.5133C178.294 53.6466 178.493 53.7795 178.652 53.9543C178.819 54.1383 179.042 54.2789 179.242 54.4123C179.44 54.5437 179.592 54.7284 179.75 54.9032C179.91 55.0797 180.141 55.1449 180.3 55.2945C180.452 55.4379 180.69 55.5105 180.891 55.6526C181.07 55.78 181.29 55.8771 181.49 56.0104C181.683 56.1389 181.922 56.2926 182.181 56.4682C182.406 56.6211 182.588 56.7761 182.788 56.9509C182.973 57.1122 183.188 57.2585 183.388 57.3756C183.603 57.502 183.787 57.6581 183.987 57.8002C184.166 57.9276 184.386 58.0247 184.595 58.1745C184.868 58.3714 185.086 58.5241 185.286 58.6574C185.493 58.7961 185.685 58.9736 185.885 59.1152C185.995 59.1932 186.068 59.3067 186.127 59.4063C186.329 59.7536 186.218 60.405 186.243 60.8952C186.262 61.2554 186.318 61.6535 186.443 61.8453C186.565 62.0332 186.734 62.17 186.851 62.3448C186.972 62.526 187.1 62.7023 187.242 62.8941C187.375 63.0744 187.5 63.2517 187.641 63.4517C187.795 63.6687 187.916 63.851 188.024 64.0511C188.129 64.2446 188.216 64.4504 188.407 64.6918C188.553 64.8762 188.648 65.0996 189.072 65.5484C189.288 65.7769 189.448 65.9816 189.838 66.4059C190.062 66.6498 190.23 66.8147 190.43 66.9895C190.612 67.149 190.779 67.2812 190.979 67.4058C191.205 67.5463 191.378 67.6807 191.578 67.7888C191.772 67.8935 191.978 68.0133 192.178 68.1135C192.422 68.2357 192.627 68.4458 192.827 68.5465C193.027 68.6469 193.226 68.8124 193.559 68.9872C193.827 69.1279 194.025 69.2289 194.234 69.3453C194.475 69.48 194.675 69.6115 194.875 69.7034C195.11 69.8113 195.324 70.0111 195.532 70.1112C195.817 70.2483 196.023 70.4605 196.231 70.5607C196.496 70.6879 196.738 70.926 197.055 71.1265C197.257 71.2543 197.471 71.3266 197.713 71.4429C197.928 71.5467 198.121 71.6592 198.404 71.7843C198.633 71.8857 198.87 72.0088 199.152 72.1586C199.73 72.4651 200.002 72.4753 200.277 72.5834C200.561 72.6954 200.768 72.7749 201.142 72.9327C201.613 73.132 201.866 73.1745 202.166 73.2826C202.491 73.4 202.765 73.5071 203.305 73.6819C203.667 73.799 203.964 73.9066 204.288 74.015C204.739 74.1658 204.996 74.2233 205.229 74.3232C205.509 74.4427 205.795 74.473 206.103 74.4982C206.383 74.5212 206.644 74.5899 207.134 74.7142C207.501 74.8072 207.776 74.8226 208.093 74.8478C208.345 74.8679 208.675 74.9554 209.539 74.9976C209.79 75.0224 210.007 75.0393 210.256 75.0476C210.357 75.0558 210.407 75.0723 210.558 74.9894" stroke="#0CDF1E" stroke-linecap="round"/>
<path d="M210.508 74.9895C210.673 74.9895 211.006 74.9565 211.372 74.9313C211.739 74.9059 212.205 74.8566 212.488 74.8314C212.555 74.8254 212.604 74.8067 213.338 74.7982C214.073 74.7897 215.49 74.7897 216.253 74.7814C217.414 74.7689 218.048 74.7068 218.331 74.6816C218.555 74.6616 218.879 74.5899 219.213 74.507C219.539 74.4262 219.779 74.4071 220.004 74.3404C220.245 74.2693 220.445 74.2073 220.662 74.1407C220.955 74.0502 221.227 74.0076 221.444 73.9409C221.652 73.8773 221.877 73.7908 222.143 73.7079C222.387 73.6322 222.593 73.5581 222.793 73.4499C222.981 73.3483 223.192 73.3084 223.434 73.2334C223.658 73.1638 223.841 73.0257 224.083 72.9338C224.323 72.8423 224.541 72.709 224.741 72.6009C224.934 72.4963 225.173 72.3764 225.39 72.2431C225.595 72.1172 225.789 71.9769 226.031 71.8021C226.228 71.6594 226.439 71.5773 226.639 71.444C226.831 71.3155 227.071 71.1948 227.288 71.0859C227.499 70.9801 227.687 70.7952 227.929 70.6449C228.132 70.5186 228.303 70.3957 228.486 70.2536C228.531 70.2191 228.586 70.2119 228.628 70.1787C228.829 70.0193 228.77 69.6465 228.779 69.0734C228.783 68.7871 228.538 68.6307 228.338 68.4641C228.155 68.3115 227.889 68.2641 227.689 68.1892C227.462 68.1043 227.24 68.0144 227.048 67.9312C226.826 67.8349 226.756 67.5489 226.681 67.3489C226.601 67.1358 226.506 66.9496 226.481 66.7081C226.459 66.4928 226.357 66.3003 226.323 66.0588C226.291 65.8298 226.124 65.6511 226.032 65.451C225.934 65.2368 225.741 65.0517 225.558 64.8932C225.394 64.7519 225.259 64.5353 225.125 64.3605C224.977 64.1685 224.742 64.0029 224.501 63.8111C224.306 63.6564 224.143 63.5195 223.935 63.4031C223.694 63.2684 223.494 63.1369 223.294 63.045C223.087 62.95 222.895 62.8372 222.653 62.7371C222.411 62.6369 222.195 62.5376 221.995 62.4457C221.789 62.3507 221.596 62.2379 221.396 62.1543C221.202 62.0729 220.964 61.9882 220.739 61.8963C220.493 61.7962 220.298 61.7215 220.097 61.6051C219.865 61.4702 219.598 61.3389 219.232 61.1227C219 60.9855 218.799 60.9224 218.583 60.8061C218.255 60.6299 217.917 60.4729 217.7 60.3566C217.496 60.2471 217.301 60.1403 217.093 60.0484C216.85 59.9415 216.652 59.8406 216.369 59.757C216.146 59.6911 215.919 59.574 215.686 59.4244C215.437 59.265 215.104 59.2084 214.762 59.0995C214.466 59.0051 214.139 58.9247 213.598 58.7669C213.233 58.6602 212.874 58.5751 212.59 58.5084C212.302 58.441 212.041 58.3583 211.583 58.234C211.266 58.1478 211.058 58.1256 210.759 58.0589C210.458 57.992 210.193 57.9588 209.959 57.9091C209.726 57.8596 209.46 57.8259 209.111 57.7925C208.704 57.7535 208.411 57.6761 208.161 57.6177C207.895 57.5927 207.695 57.5592 207.57 57.551C207.512 57.5428 207.462 57.5263 207.361 57.4594" stroke="#0CDF1E" stroke-linecap="round"/>
<path d="M207.661 57.3595C207.545 57.343 207.114 57.3095 206.788 57.2681C206.464 57.227 206.132 57.2096 205.822 57.1599C205.595 57.1234 205.331 57.0768 204.824 57.0516C204.543 57.0376 204.283 56.927 203.9 56.9017C203.63 56.884 203.367 56.8271 202.537 56.8019C202.351 56.7962 202.285 56.7771 201.814 56.7686C201.343 56.7602 200.47 56.7602 199.995 56.7684C199.073 56.7844 198.24 56.8431 197.915 56.9015C197.381 56.9977 197.075 56.9599 196.766 57.0096C196.248 57.093 195.543 57.0928 194.579 57.118C194.326 57.1246 193.782 57.1597 193.008 57.1679C192.133 57.1773 190.998 57.2426 190.69 57.301C190.026 57.4271 189.42 57.3595 188.893 57.4009C187.97 57.4735 187.504 57.4594 187.06 57.3682C186.817 57.3181 186.553 57.2436 186.211 57.1185C185.963 57.0273 185.671 56.8441 185.429 56.7522C185.167 56.6528 184.988 56.4445 184.696 56.2118C184.415 55.9871 184.238 55.7952 184.038 55.6619C183.838 55.5285 183.705 55.3627 183.539 55.2456C183.335 55.1015 183.173 54.9632 182.973 54.7964C182.664 54.5378 182.423 54.3139 182.24 54.1221C182.071 53.9448 181.841 53.8145 181.641 53.6642C181.449 53.5197 181.242 53.365 181.042 53.2147C180.842 53.0645 180.642 52.9315 180.442 52.8069C180.242 52.6154 180.093 52.482 179.952 52.3661C179.86 52.2832 179.729 52.1514 179.493 51.9156" stroke="#0CDF1E" stroke-linecap="round"/>
<path d="M179.643 52.0155C179.527 51.999 179.294 51.9326 179.094 51.8162C178.855 51.6769 178.595 51.533 178.395 51.4166C178.187 51.2958 177.963 51.1504 177.754 51.0089C177.559 50.8764 177.396 50.701 177.246 50.5179C177.208 50.4713 177.18 50.4183 177.171 50.3681C177.154 50.2696 177.212 50.1681 177.262 50.0849C177.365 49.9122 177.644 49.9348 177.885 49.8682C178.17 49.7896 178.543 49.785 178.784 49.7183C179.1 49.6311 179.542 49.6352 179.857 49.5767C180.432 49.4704 180.674 49.4853 181.264 49.4601C181.441 49.4525 182.282 49.4184 183.505 49.4102C184.253 49.4051 184.786 49.3355 185.533 49.3103C186.002 49.2945 186.434 49.2356 186.741 49.1772C187.275 49.0758 187.549 49.0858 187.791 49.0274C188.027 48.9704 188.265 48.936 188.548 48.8775C188.876 48.8099 189.114 48.7861 189.339 48.7195C189.595 48.6438 189.896 48.6193 190.13 48.5614C190.373 48.5012 190.629 48.4365 190.838 48.3781C191.096 48.3366 191.328 48.2368 191.528 48.1701C191.579 48.1534 191.628 48.1369 191.729 48.0699" stroke="#0CDF1E" stroke-linecap="round"/>
<path d="M191.329 47.9701C191.445 47.9536 191.678 47.8872 191.895 47.8288C192.169 47.7546 192.377 47.7374 192.577 47.6707C192.777 47.604 192.977 47.5376 193.301 47.4627C193.617 47.3898 193.926 47.188 194.175 47.1131C194.436 47.0347 194.625 46.9053 194.841 46.8217C195.113 46.7167 195.357 46.6886 195.582 46.5887C195.82 46.4831 196.073 46.4558 196.273 46.3722C196.497 46.2787 196.772 46.2391 196.972 46.1724C197.187 46.1008 197.455 46.0393 197.672 45.9726C197.918 45.8968 198.221 45.8066 198.421 45.7229C198.63 45.6355 198.87 45.5898 199.078 45.5232C199.322 45.4452 199.585 45.3731 199.877 45.3234C200.172 45.2731 200.467 45.1903 200.784 45.1318C200.964 45.0988 201.134 45.1069 201.259 45.0737C201.368 45.0445 202.16 45.0235 203.308 45.0152C203.765 45.0119 204.376 44.9735 205.258 44.9818C205.896 44.9877 206.427 45.0564 207.134 45.0817C207.377 45.0903 208.071 45.1234 209.02 45.1151C209.545 45.1106 209.807 44.9905 210.298 44.9653C210.579 44.9508 210.839 44.8407 211.205 44.8072C211.58 44.7729 211.838 44.6579 212.063 44.5742C212.313 44.4814 212.587 44.4411 212.854 44.3745C213.136 44.3039 213.403 44.2084 213.686 44.1662C213.924 44.1307 214.153 44.0416 214.353 43.9749C214.567 43.9033 214.802 43.8418 215.002 43.7751C215.222 43.7018 215.484 43.5921 215.701 43.5254C215.923 43.4573 216.183 43.3094 216.408 43.2175C216.654 43.1174 216.849 43.0098 217.05 42.8764C217.242 42.7479 217.449 42.6272 217.649 42.4851C217.852 42.3404 218.098 42.1607 218.464 41.8201C218.686 41.6137 218.897 41.4285 219.139 41.2782C219.349 41.1474 219.546 40.9791 219.746 40.8287C220.002 40.6369 220.296 40.3628 220.496 40.188C220.688 40.0201 220.895 39.8633 221.136 39.6471C221.335 39.4689 221.544 39.281 221.736 39.1224C221.927 38.9641 222.094 38.7646 222.244 38.5815C222.386 38.4081 222.527 38.2821 222.726 38.0821C222.903 37.9048 223.01 37.6828 223.184 37.5242C223.361 37.3641 223.459 37.1334 223.592 36.9334C223.731 36.7255 223.876 36.5341 223.992 36.3341C224.118 36.1181 224.308 35.9018 224.483 35.7263C224.651 35.5574 224.758 35.3355 224.932 35.1354C225.094 34.9508 225.24 34.7691 225.39 34.5861C225.557 34.3826 225.706 34.1368 225.881 33.9368C226.043 33.7522 226.189 33.5375 226.347 33.3043C226.49 33.0942 226.705 32.9052 226.955 32.6053C227.022 32.4887 227.072 32.3883 227.13 32.2887C227.155 32.2385 227.172 32.189 227.239 32.0382" stroke="#0CDF1E" stroke-linecap="round"/>
<path d="M227.089 32.0881C227.105 31.9887 227.172 31.7895 227.238 31.5894C227.305 31.3894 227.404 31.1901 227.496 30.9901C227.591 30.7834 227.671 30.5908 227.788 30.3908C227.908 30.183 228.021 29.9585 228.096 29.7415C228.173 29.5186 228.353 29.3422 228.478 29.134C228.612 28.9124 228.67 28.693 228.778 28.4929C228.88 28.305 228.953 28.0936 229.045 27.8936C229.14 27.6869 229.252 27.4943 229.377 27.2943C229.491 27.1131 229.552 26.895 229.677 26.695C229.79 26.5138 229.819 26.2957 229.927 26.0874C230.043 25.8628 230.068 25.6464 230.143 25.4464C230.228 25.2197 230.318 24.9972 230.385 24.7889C230.461 24.5501 230.518 24.3149 230.585 24.0979C230.647 23.8964 230.751 23.6986 230.843 23.4075C230.934 23.1193 231.067 22.8995 231.134 22.6995C231.202 22.494 231.317 22.3002 231.425 22.1002C231.527 21.9122 231.567 21.7009 231.667 21.4926C231.773 21.2701 231.816 21.0516 231.883 20.8516C231.95 20.6516 232.016 20.4523 232.075 20.2441C232.14 20.0101 232.166 19.8031 232.224 19.5121C232.315 19.0617 232.316 18.8541 232.374 18.6294C232.456 18.3138 232.466 18.105 232.491 17.6562C232.505 17.399 232.616 17.173 232.641 16.7073C232.649 16.555 232.682 16.3904 232.567 16.2156C232.218 15.6866 231.735 16.289 231.535 16.3557C231.32 16.4274 231.085 16.4888 230.893 16.6134C230.696 16.742 230.602 16.9543 230.485 17.1543C230.366 17.3591 230.202 17.5037 230.086 17.7037C229.969 17.9039 229.87 18.103 229.778 18.303C229.679 18.5173 229.553 18.7023 229.445 18.9023C229.34 19.0959 229.22 19.3016 229.087 19.5017C228.954 19.7017 228.788 19.9009 228.546 20.1342C228.354 20.3197 228.139 20.4343 227.939 20.5507C227.738 20.6672 227.506 20.767 227.289 20.8921C227.099 21.002 226.89 21.0836 226.649 21.1917C226.446 21.2823 226.208 21.3333 225.991 21.4415C225.8 21.5367 225.592 21.583 225.383 21.6497C225.129 21.731 224.892 21.7828 224.643 21.8909C224.388 22.001 224.11 22.0325 223.843 22.1407C223.601 22.2388 223.394 22.2822 223.194 22.3489C222.994 22.4156 222.729 22.515 222.495 22.6069C222.283 22.69 222.063 22.7817 221.846 22.8566C221.63 22.9308 221.446 23.0644 221.197 23.1563C220.941 23.2504 220.714 23.3311 220.481 23.4474C220.206 23.5842 219.965 23.6637 219.706 23.7556C219.429 23.8541 219.116 23.9973 218.833 24.1464C218.503 24.3202 218.3 24.4128 218.05 24.5379C217.812 24.6573 217.535 24.7624 217.301 24.8958C217.092 25.0148 216.868 25.162 216.651 25.2539C216.434 25.3458 216.252 25.4786 216.044 25.595C215.809 25.726 215.603 25.8112 215.395 25.9363C215.155 26.0805 214.904 26.2108 214.704 26.3027C214.497 26.3977 214.304 26.5104 214.104 26.6356C213.918 26.7522 213.705 26.8271 213.497 26.9517C213.237 27.1073 212.973 27.2097 212.748 27.3512C212.503 27.5051 212.307 27.5762 212.098 27.7008C211.85 27.8493 211.657 27.9588 211.457 28.0839C211.271 28.2006 211.058 28.3414 210.808 28.4585C210.536 28.5861 210.326 28.7579 210.109 28.883C209.918 28.9929 209.71 29.1075 209.501 29.2408C209.273 29.3867 209.11 29.524 208.902 29.6072C208.617 29.7211 208.378 29.9396 208.12 30.0899C207.906 30.2143 207.679 30.3561 207.462 30.5309C207.271 30.6847 207.063 30.8056 206.863 30.9389C206.643 31.085 206.413 31.288 206.213 31.3969C205.994 31.5164 205.797 31.6876 205.614 31.8461C205.405 32.0275 205.05 32.4018 204.848 32.6784C204.712 32.864 204.515 33.036 204.324 33.1946C204.114 33.3677 203.916 33.6354 203.766 33.8354C203.602 34.0536 203.4 34.2846 203.266 34.4846C203.133 34.6847 202.967 34.8839 202.817 35.084C202.664 35.2872 202.518 35.5662 202.334 35.8246C202.166 36.0613 201.968 36.3822 201.851 36.5905C201.701 36.8322 201.635 37.0315 201.568 37.2315C201.551 37.2817 201.535 37.3312 201.468 37.432" stroke="#0CDF1E" stroke-linecap="round"/>
<path d="M201.618 37.0825C201.585 37.1818 201.452 37.3811 201.36 37.5811C201.265 37.7879 201.185 37.9804 201.119 38.1805C201.052 38.3805 200.985 38.6127 200.952 38.9541C200.928 39.1995 200.819 39.4777 200.769 39.7287C200.725 39.9509 200.636 40.1779 200.569 40.378C200.501 40.5835 200.353 40.7773 200.212 40.969C200.079 41.1493 199.954 41.3266 199.771 41.4852C199.561 41.6665 199.371 41.8101 199.13 41.9265C198.899 42.0379 198.722 42.2426 198.522 42.3345C198.315 42.4295 198.123 42.5423 197.923 42.6259C197.728 42.7073 197.523 42.792 197.315 42.8839C197.073 42.9908 196.874 43.0587 196.666 43.175C196.431 43.306 196.225 43.3583 196.017 43.4665C195.792 43.5831 195.576 43.641 195.376 43.7247C195.099 43.8402 194.661 44.0236 194.418 44.1242C194.134 44.2423 193.828 44.3902 193.628 44.4738C193.433 44.5552 193.195 44.6399 192.929 44.6986C192.634 44.7635 192.429 44.9066 192.188 44.9733C191.962 45.0357 191.664 45.0734 191.397 45.1148C191.034 45.1713 190.765 45.1733 190.424 45.2147C189.885 45.2802 189.649 45.2732 189.424 45.3146C189.185 45.3586 188.818 45.373 188.492 45.4227C188.248 45.4599 187.951 45.5059 187.627 45.6058C187.298 45.7069 187.085 45.7057 186.869 45.7641C186.578 45.8425 186.336 45.8555 186.045 45.8807C185.902 45.8931 185.786 45.9389 185.349 45.9639C184.235 45.9724 183.439 45.9888 183.282 46.0138C183.174 46.0223 183.009 46.0223 182.939 46.0223" stroke="#0CDF1E" stroke-linecap="round"/>
<path d="M184.038 45.8725C183.722 45.9224 183.489 45.9554 183.149 46.0138C182.647 46.1 182.045 46.0723 181.567 46.1137C181.192 46.1462 180.893 46.1721 180.559 46.2218C180.179 46.2785 179.644 46.305 179.228 46.3302C178.499 46.3745 177.33 46.3389 176.889 46.3137C176.398 46.2857 175.698 46.2391 175.332 46.2138C175.047 46.1941 174.716 46.1392 174.077 46.114C173.715 46.0997 173.451 46.0393 173.002 46.0141C172.729 45.9987 172.469 45.9224 172.186 45.881C171.838 45.8301 171.57 45.7896 171.328 45.7311C170.995 45.6507 170.754 45.6397 170.471 45.6063C170.225 45.5772 170.005 45.4899 169.763 45.4647C169.548 45.4422 169.355 45.3401 169.023 45.3149C168.718 45.2917 168.423 45.2232 168.206 45.1735C168.001 45.1265 167.774 45.0404 167.516 44.9737C167.277 44.9121 167.008 44.8576 166.767 44.8154C166.548 44.7773 166.359 44.6409 166.159 44.5742C165.953 44.5057 165.825 44.3747 165.775 44.2586C165.748 44.1954 165.758 44.1095 165.783 44.0505C165.874 43.8329 166.107 43.7419 166.299 43.6173C166.487 43.4952 166.656 43.3593 166.848 43.2177C167.028 43.0847 167.206 42.9598 167.398 42.8182C167.578 42.6851 167.755 42.5602 167.939 42.4186C168.095 42.2984 168.255 42.1607 168.463 42.0438C168.676 41.9244 168.937 42.0099 169.195 42.0433C169.449 42.0761 169.703 42.1597 169.903 42.2761C170.123 42.4039 170.352 42.5093 170.552 42.6174C170.746 42.7221 170.952 42.809 171.193 42.8342C171.408 42.8567 171.601 42.9588 171.801 43.0255C172.001 43.0921 172.2 43.1586 172.4 43.2335C172.613 43.3133 172.799 43.4083 173.008 43.4667C173.242 43.5324 173.449 43.5581 173.707 43.6165C173.992 43.6813 174.198 43.7079 174.613 43.7332C174.903 43.7507 175.13 43.8248 175.363 43.8663C175.643 43.916 175.846 43.9577 176.087 44.0161C176.485 44.1124 176.695 44.1075 177.111 44.1327C177.4 44.1503 177.66 44.2243 178.232 44.2658C179.342 44.3463 180.158 44.2578 180.34 44.2328C180.837 44.1648 181.04 44.1414 181.323 44.0748C181.559 44.0191 181.789 43.9417 181.989 43.875C182.189 43.8083 182.389 43.7419 182.713 43.7167C182.945 43.6986 183.138 43.5921 183.338 43.5254C183.549 43.4551 183.787 43.4422 183.995 43.3424C184.232 43.2286 184.486 43.1925 184.694 43.1176C184.964 43.0205 185.251 42.8599 185.485 42.7265C185.694 42.6075 185.918 42.4933 186.135 42.4184C186.35 42.3442 186.501 42.1777 186.684 42.0688C186.899 41.941 187.133 41.8441 187.333 41.7277C187.549 41.602 187.733 41.3786 187.941 41.2532C188.214 41.0887 188.382 40.9121 188.598 40.7955C188.931 40.6163 189.081 40.4456 189.24 40.2878C189.425 40.1034 189.68 39.9302 189.872 39.7717C190.054 39.6213 190.296 39.3649 190.488 39.1309C190.657 38.9256 190.796 38.7316 190.938 38.5316C191.091 38.3146 191.213 38.1323 191.329 37.9322C191.445 37.732 191.545 37.5329 191.687 37.3329C191.834 37.1246 191.945 36.9007 192.161 36.634C192.311 36.3837 192.411 36.2339 192.486 36.1343C192.528 36.0841 192.577 36.0346 192.628 35.9837" stroke="#0CDF1E" stroke-linecap="round"/>
<path d="M192.678 35.9837C192.711 35.8514 192.844 35.5852 192.969 35.3851C193.089 35.1924 193.243 34.9859 193.327 34.7858C193.413 34.5797 193.56 34.3865 193.751 34.1451C193.897 33.9607 194.025 33.7043 194.217 33.4376C194.39 33.1972 194.509 32.9881 194.617 32.7881C194.722 32.5945 194.841 32.3888 194.925 32.1888C195.015 31.9748 195.141 31.7066 195.266 31.4896C195.373 31.3045 195.441 31.0573 195.541 30.8403C195.651 30.6011 195.757 30.3911 195.824 30.191C195.901 29.9611 195.924 29.593 195.974 29.3338C196.021 29.0875 196.074 28.695 196.116 28.3848C196.148 28.144 196.174 27.845 196.215 27.5693C196.264 27.2468 196.274 26.946 196.249 26.6381C196.24 26.5256 196.175 26.5115 195.564 26.503C194.954 26.4945 193.784 26.4945 193.156 26.4862C192.279 26.4747 191.847 26.4116 191.588 26.3864C191.263 26.3546 190.831 26.3117 190.382 26.2865C190.23 26.2779 189.604 26.2448 188.689 26.253C188.066 26.2586 187.735 26.3277 187.327 26.3529C187.078 26.3683 186.82 26.4445 186.586 26.4942C186.379 26.538 186.153 26.5944 185.87 26.6606C185.514 26.7438 185.337 26.8771 185.137 26.9852C184.866 27.132 184.488 27.2766 184.288 27.393C184.076 27.5167 183.839 27.6092 183.639 27.7343C183.458 27.8476 183.24 27.9089 183.04 27.9925C182.84 28.0761 182.64 28.1756 182.44 28.2837C182.247 28.3883 181.942 28.5412 181.65 28.65C181.422 28.7348 181.192 28.8079 180.95 28.8915C180.729 28.9683 180.46 29.0576 180.243 29.1412C180.046 29.2171 179.844 29.2743 179.643 29.3825C179.456 29.4841 179.244 29.5241 179.003 29.6322C178.795 29.7253 178.562 29.8237 178.345 29.8904C178.245 29.9236 178.03 30.023 177.739 30.1643C177.613 30.2233 177.53 30.2562 177.345 30.3401" stroke="#0CDF1E" stroke-linecap="round"/>
<path d="M180.991 28.8917C180.825 28.9247 180.56 28.9916 180.293 29.0495C180.012 29.1107 179.728 29.2573 179.411 29.3078C179.175 29.3453 178.994 29.4741 178.794 29.549C178.581 29.6288 178.362 29.7567 178.145 29.8486C177.915 29.9461 177.696 30.0734 177.488 30.1898C177.24 30.328 177.03 30.439 176.847 30.5478C176.632 30.6756 176.364 30.8385 176.147 30.9888C175.957 31.1208 175.748 31.2051 175.507 31.3384C175.29 31.4581 175.099 31.6046 174.899 31.6965C174.685 31.795 174.5 31.9213 174.3 32.0791C174.107 32.231 173.9 32.3538 173.659 32.5368C173.437 32.7046 173.218 32.9192 173.001 33.1197C172.837 33.2715 172.635 33.3856 172.452 33.5442C172.251 33.7182 172.019 33.8851 171.802 34.0768C171.619 34.2392 171.403 34.3515 171.203 34.5181C171.025 34.6662 170.771 34.834 170.562 34.9925C170.384 35.1281 170.204 35.2505 170.013 35.3921C169.813 35.5397 169.655 35.7499 169.455 35.8915C169.238 36.0451 169.056 36.2654 168.856 36.4327C168.664 36.593 168.358 36.8807 168.107 37.1316C167.915 37.3236 167.773 37.481 167.408 37.8883C167.198 38.1227 167.074 38.33 166.958 38.53C166.832 38.7461 166.641 38.9293 166.467 39.1294C166.299 39.3214 166.142 39.5286 165.967 39.7701C165.814 39.9822 165.61 40.1449 165.501 40.328C165.382 40.5271 165.16 40.6444 165.002 40.8192C164.827 41.0112 164.611 41.2267 164.419 41.3853C164.237 41.5357 164.094 41.7262 163.92 41.8433C163.699 41.9909 163.545 42.2755 163.362 42.4341C163.153 42.6154 162.963 42.7919 162.763 42.9253C162.563 43.0586 162.363 43.1585 162.04 43.217C161.227 43.3637 161.015 43.1425 160.807 43.0759C160.568 42.9994 160.366 42.9428 160.124 42.8761C159.913 42.8178 159.716 42.743 159.516 42.6681C159.276 42.578 159.017 42.4933 158.817 42.4266C158.617 42.3599 158.385 42.3265 158.16 42.2353C157.91 42.1345 157.669 42.0937 157.427 42.0271C157.216 41.9688 156.953 41.894 156.711 41.8273C156.469 41.7607 156.27 41.6942 155.987 41.6275C155.751 41.5718 155.455 41.4944 155.221 41.4277C155.003 41.3657 154.772 41.2946 154.564 41.228C154.325 41.1515 154.123 41.0949 153.906 41.0282C153.628 40.9425 153.358 40.8621 153.124 40.737C153.073 40.7118 153.024 40.6953 152.974 40.6704C152.924 40.6454 152.874 40.6124 152.723 40.5785" stroke="#0CDF1E" stroke-linecap="round"/>
<path d="M172.85 36.4831C172.999 36.4337 173.299 36.2674 173.499 36.1755C173.713 36.077 173.865 35.8848 174.098 35.6766C174.357 35.4446 174.515 35.2356 174.698 35.0355C174.967 34.7409 175.347 34.4524 175.629 34.2532C175.853 34.0956 176.046 33.92 176.246 33.7867C176.439 33.6582 176.645 33.5704 176.845 33.4039C177.017 33.2607 177.244 33.1709 177.444 33.0458C177.626 32.9325 177.844 32.8712 178.044 32.7461C178.23 32.6295 178.509 32.5546 178.759 32.4382C179.051 32.3026 179.292 32.222 179.492 32.1383C179.687 32.057 179.924 31.9723 180.141 31.8886C180.338 31.8128 180.541 31.7555 180.741 31.6888C180.946 31.6203 181.173 31.5058 181.39 31.4391C181.591 31.3772 181.822 31.306 182.039 31.1979C182.244 31.0957 182.488 31.0563 182.688 30.9896C182.889 30.9229 183.121 30.8895 183.396 30.7983C183.686 30.7021 183.92 30.6068 184.137 30.5401C184.368 30.469 184.669 30.3741 184.969 30.3236C185.204 30.284 185.484 30.1903 185.768 30.1074C186.122 30.0041 186.367 30.0075 186.601 29.9408C186.881 29.8609 187.182 29.8407 187.524 29.7992C188.178 29.7198 188.415 29.7408 189.143 29.6993C189.703 29.6674 190.775 29.6908 191.352 29.6826C192.161 29.671 192.478 29.6244 192.577 29.6077C192.627 29.5994 192.677 29.6239 192.702 29.7313C192.831 30.2747 192.645 30.4889 192.57 30.6972C192.478 30.9532 192.312 31.1382 192.229 31.3382C192.145 31.5381 192.046 31.7375 191.929 31.9375C191.813 32.1378 191.713 32.3368 191.621 32.5369C191.523 32.7511 191.363 32.9362 191.28 33.1362C191.194 33.3423 191.047 33.5355 190.98 33.7355C190.912 33.941 190.797 34.1348 190.689 34.3348C190.584 34.5284 190.464 34.7341 190.373 34.9341C190.278 35.1409 190.198 35.3334 190.048 35.5335C189.914 35.7126 189.815 35.9328 189.64 36.1328C189.485 36.3105 189.383 36.5321 189.208 36.7486C188.966 37.0469 188.816 37.2313 188.65 37.3899C188.493 37.5389 188.384 37.7477 188.01 38.1048C187.744 38.3584 187.469 38.5458 187.235 38.7301C187.049 38.8767 186.885 39.0133 186.685 39.1379C186.46 39.2784 186.253 39.4458 186.036 39.5459C185.788 39.6604 185.554 39.8783 185.254 40.0286C185.026 40.1427 184.838 40.2948 184.596 40.3867C184.377 40.4703 184.189 40.5615 183.98 40.6696C183.756 40.7863 183.539 40.8112 183.298 40.8779C183.087 40.9362 182.857 40.978 182.64 41.0277C182.435 41.0748 182.01 41.1279 181.353 41.1693C180.357 41.2322 179.627 41.1613 179.395 41.1364C178.648 41.0559 178.28 41.0779 177.995 41.0282C177.729 40.9817 177.396 40.9451 177.155 40.9198C176.924 40.8957 176.664 40.7952 176.431 40.7368C176.155 40.6677 175.948 40.6454 175.706 40.5787C175.495 40.5205 175.266 40.4456 175.049 40.379C174.842 40.3153 174.649 40.1959 174.507 40.0299C174.437 39.9478 174.449 39.8134 174.465 39.6887C174.496 39.4573 174.797 39.3639 174.997 39.2802C175.197 39.1966 175.561 39.1301 175.904 39.0887C176.393 39.0295 176.661 39.0302 176.986 38.9888C177.656 38.9032 177.894 38.8974 178.342 38.8722C178.6 38.8577 178.859 38.7805 179.109 38.7391C179.39 38.6926 179.658 38.6477 179.9 38.5892C180.136 38.5323 180.341 38.4978 180.582 38.4561C180.836 38.4123 181.04 38.2321 181.24 38.1315C181.427 38.0377 181.589 37.8656 181.748 37.6908C181.907 37.5159 182.056 37.3332 182.189 37.1331C182.326 36.9284 182.373 36.6839 182.431 36.4592C182.513 36.1436 182.489 35.9018 182.423 35.693C182.353 35.4723 182.041 35.4513 181.833 35.3846C181.563 35.2984 180.6 35.2845 180.043 35.3342C179.802 35.3557 179.544 35.4673 179.327 35.5257C179.032 35.6053 178.762 35.717 178.536 35.7754C178.299 35.837 178.095 35.9168 177.813 35.9917C177.57 36.0559 177.346 36.1166 177.146 36.1832C176.931 36.2549 176.697 36.3163 176.456 36.3415C176.224 36.3657 175.998 36.4662 175.715 36.4914C175.491 36.5113 175.266 36.616 175.007 36.6827C174.753 36.7483 174.45 36.7658 174.25 36.8325C174.023 36.9079 173.75 36.9156 173.376 36.9409C173.216 36.9516 172.936 36.9826 172.628 36.9578C172.531 36.9501 172.567 36.8837 172.633 36.8088C172.919 36.4864 173.149 36.3842 173.349 36.2754C173.556 36.1626 173.682 35.9847 173.84 35.7847C173.992 35.5922 174.148 35.4183 174.306 35.2435C174.457 35.0776 174.63 34.9189 174.806 34.7441C174.975 34.5759 175.197 34.4694 175.397 34.3278C175.605 34.1804 175.796 34.1028 176.038 33.9533C176.096 33.9195 176.146 33.9031 176.196 33.8781C176.246 33.8531 176.295 33.8202 176.396 33.7363" stroke="#0CDF1E" stroke-linecap="round"/>
<path d="M153.344 40.7152C153.304 40.6618 153.144 40.6349 152.983 40.5682C152.832 40.5057 152.662 40.4878 152.487 40.4408C152.265 40.3808 152.099 40.3271 151.905 40.3068C151.719 40.2874 151.537 40.2066 151.376 40.153C151.215 40.0993 151.028 40.0459 150.853 39.9856C150.68 39.9259 150.532 39.845 150.371 39.7847C150.2 39.7206 150.05 39.6706 149.889 39.6039C149.697 39.5244 149.394 39.4698 149.173 39.3964C148.971 39.3296 148.724 39.3227 148.53 39.2757C148.338 39.2293 148.095 39.162 147.847 39.1417C147.631 39.124 147.399 39.0278 147.164 38.9878C146.956 38.9524 146.715 38.9209 146.548 38.8673C146.359 38.8068 146.193 38.8004 145.992 38.7468C145.766 38.6864 145.55 38.6397 145.356 38.5861C145.186 38.5392 145.028 38.5055 144.867 38.4322C144.711 38.3609 144.519 38.3183 144.345 38.2914C144.167 38.264 144.024 38.1576 143.829 38.0772C143.658 38.0064 143.435 37.9567 143.26 37.9031C143.086 37.8496 142.899 37.796 142.704 37.7424C142.522 37.6921 142.336 37.6353 142.175 37.5817C142.006 37.5251 141.814 37.5148 141.613 37.4611C141.415 37.4082 141.198 37.3942 141.004 37.3472C140.813 37.3014 140.622 37.3002 140.214 37.2603C140.084 37.2475 139.621 37.2199 138.952 37.2132C138.333 37.2071 137.716 37.1532 136.955 37.1329C136.751 37.1275 136.631 37.0993 136.491 37.0861C136.292 37.0674 136.216 36.8189 136.129 36.6514C136.01 36.4237 135.828 36.3231 135.667 36.2159C135.496 36.1024 135.305 36.0017 135.144 35.9278C134.972 35.8486 134.823 35.747 134.629 35.7267C134.414 35.7043 134.021 35.6128 133.745 35.5795C133.549 35.5558 133.178 35.4923 132.935 35.4523C132.668 35.4085 132.292 35.3854 132.098 35.3651C131.889 35.3433 131.623 35.3051 131.281 35.2848C131.018 35.2691 130.725 35.2247 130.291 35.2044C129.803 35.1816 129.158 35.1444 128.397 35.1373C127.887 35.1326 127.27 35.1974 127.009 35.2177C126.735 35.2512 126.426 35.2645 126.346 35.2846C126.305 35.2914 126.266 35.2914 126.225 35.2914" stroke="#0CDF1E" stroke-linecap="round"/>
<path d="M127.09 34.8936C126.946 34.8936 126.657 34.9346 126.357 34.9659C125.832 35.0208 125.043 34.9768 124.536 34.9454C124.227 34.9263 123.619 34.8315 123.18 34.78C122.911 34.7484 122.376 34.7073 121.939 34.6558C121.382 34.5901 120.804 34.5832 120.263 34.5316C119.396 34.4489 119.145 34.459 118.865 34.4075C118.447 34.3302 118.11 34.3348 117.83 34.273C117.432 34.1852 116.808 34.1287 116.341 34.0349C115.68 33.902 115.42 33.9623 115.161 33.9108C114.865 33.8518 114.408 33.8381 114.043 33.7764C113.561 33.6947 112.895 33.673 112.564 33.5901C112.079 33.469 111.446 33.4867 111.146 33.4039C110.675 33.2738 109.956 33.3005 109.44 33.2691C108.778 33.229 107.907 33.1763 106.36 33.1655C105.671 33.1606 105.176 33.2583 104.825 33.3309C104.073 33.4864 103.769 33.4445 103.293 33.4759C102.836 33.506 102.258 33.5687 101.978 33.6413C101.574 33.6724 100.958 33.714 100.519 33.7757C100.457 33.7965 100.395 33.817 100.332 33.8381" stroke="#0CDF1E" stroke-linecap="round"/>
<path d="M100.713 33.8451C100.527 33.8451 100.151 33.8716 99.7567 33.8919C99.5194 33.9041 99.3073 33.952 99.013 33.9723C98.8195 33.9856 98.6645 34.046 98.4702 34.0793C98.3037 34.1079 98.1422 34.1263 97.9747 34.1663C97.7435 34.2215 97.4729 34.2332 97.2718 34.2802C96.9709 34.3505 96.7762 34.3537 96.5621 34.4007C96.2992 34.4584 96.0803 34.4743 95.7854 34.4945C95.5291 34.5122 95.2631 34.5546 95.0486 34.5749C94.7539 34.6028 94.4058 34.635 94.2115 34.6553C93.9764 34.6798 93.7091 34.7021 92.4355 34.7221C91.2151 34.7414 88.8285 34.729 87.5792 34.7356C86.29 34.7424 86.0768 34.7692 85.7958 34.7758C85.4853 34.7831 85.1387 34.8358 84.1638 34.8561C83.9595 34.8628 83.9197 34.876 83.7534 34.8829C83.5871 34.8897 83.2954 34.8897 82.9949 34.8897" stroke="#0CDF1E" stroke-linecap="round"/>
<path d="M84.2001 34.6084C84.0543 34.6884 83.6786 34.7691 83.4444 34.8358C83.2426 34.8933 83.0495 34.8896 82.7755 34.923C82.1159 35.0033 81.8185 34.97 81.5892 34.9901C81.4071 35.006 81.268 34.7964 81.1138 34.7159C80.9499 34.6303 80.8261 34.475 80.6586 34.3878C80.4384 34.2732 80.3038 34.1801 80.1429 34.0931C79.9917 34.0114 79.8217 33.9792 79.4607 33.9523C79.185 33.9318 78.8711 33.8587 78.6965 33.8384C78.4031 33.8043 77.9736 33.8314 77.806 33.8784C77.6161 33.9317 77.4513 33.9656 77.2904 34.0056C77.1093 34.0505 76.929 34.1528 76.7548 34.1998C76.5323 34.2599 76.3135 34.287 76.1252 34.3603C75.9571 34.4258 75.7639 34.434 75.5831 34.461C75.2649 34.5083 75.0005 34.5546 74.7866 34.6016C74.3668 34.6938 74.1705 34.6751 73.8559 34.6954C73.5139 34.7174 73.0857 34.7554 72.9111 34.8025C72.7546 34.8446 72.3513 34.8495 72.0608 34.8894C71.5121 34.965 70.6213 34.9033 70.4604 34.8497C70.2951 34.7946 70.1392 34.6759 69.9449 34.5419C69.7961 34.4393 69.657 34.3143 69.4961 34.2137C69.3104 34.0975 69.0946 33.9125 68.9337 33.7719C68.7851 33.6421 68.6125 33.5775 68.4516 33.5172C68.4093 33.5014 68.3714 33.4706 68.3377 33.4768C68.2631 33.4906 68.2368 33.6036 68.2233 33.6837C68.1953 33.8509 68.3835 34.005 68.4841 34.1659C68.5302 34.2395 68.5313 34.4328 68.5114 34.6604C68.4943 34.8559 68.1705 34.8358 68.0096 34.8894C67.8277 34.9501 67.608 34.9563 67.4405 35.01C67.2266 35.0785 66.9789 35.0769 66.8043 35.1305C66.2942 35.2872 65.3582 35.1974 64.8572 35.2044C64.6877 35.2068 64.4618 35.1709 64.1808 35.1642C64.0311 35.1607 63.4743 35.1307 62.6643 35.1373C62.3714 35.1397 62.3184 35.1572 61.4691 35.164C60.6198 35.1709 58.9757 35.1709 58.1487 35.1709C57.3217 35.1709 57.3614 35.1709 57.4024 35.1709" stroke="#0CDF1E" stroke-linecap="round"/>
<path d="M58.4372 34.819C58.2836 34.8444 57.9757 34.998 57.6666 35.1273C57.366 35.253 57.0496 35.333 56.6768 35.4233C56.0374 35.5782 55.2529 35.5136 54.7211 35.5776C54.3483 35.6225 53.734 35.6679 53.2548 35.7447C52.8287 35.813 52.368 35.8732 52.0199 35.9122C51.6432 35.9544 51.3385 36.0276 50.3247 36.0665C49.8671 36.0841 49.5634 36.1819 48.0885 36.2209C47.0951 36.2471 46.0132 36.3363 45.6401 36.3752C45.2135 36.4198 44.7012 36.4906 43.8156 36.5296C43.3336 36.5508 42.9262 36.645 41.7843 36.684C41.3006 36.7005 40.9458 36.7993 40.5468 36.8896C39.9051 37.0349 39.5304 37.0309 39.2085 37.0698C38.7823 37.1215 38.3727 37.1852 37.9363 37.2755C37.0017 37.4689 36.3692 37.3658 35.8517 37.4299C35.2626 37.5028 34.4922 37.5202 33.8968 37.5842C33.204 37.6588 32.4856 37.6745 30.3239 37.7386C28.6043 37.7895 25.2418 37.7517 23.4462 37.739C21.6507 37.7262 21.5234 37.7008 21.0248 37.6876C18.6917 37.7 18.3838 37.8026 18.0747 37.9184C17.9971 37.957 17.9207 38.0079 17.9192 38.1376" stroke="#0CDF1E" stroke-linecap="round"/>
<path d="M23.223 29.5543C22.7921 29.5543 21.9205 29.5953 21.6718 29.6782C21.4232 29.7611 21.1345 29.8436 20.8647 29.9265C20.5955 30.0092 20.3063 30.1329 20.0576 30.2472C19.8007 30.3652 19.5613 30.5055 19.3126 30.6507C19.0913 30.78 18.7753 30.878 18.5055 30.9922C18.2451 31.1025 18.0092 31.2095 17.74 31.3337C17.4179 31.4823 17.14 31.4578 16.8913 31.4892C16.6344 31.5216 16.395 31.6441 15.9917 31.6754C15.7075 31.6975 15.4637 31.7683 14.9059 31.7996C14.2038 31.8391 13.1666 31.8105 12.6087 31.7791C12.2323 31.758 11.8628 31.6863 11.4595 31.655C11.1552 31.6313 10.8694 31.5621 10.5081 31.4895C9.70469 31.328 8.82686 31.4169 8.21036 31.4684C7.70333 31.5108 7.41381 31.582 7.14405 31.6546C6.90209 31.7198 6.64769 31.7683 6.37855 31.8409C6.03708 31.9331 5.77851 31.9545 5.52986 32.0476C5.27361 32.1436 5.03349 32.2438 4.78484 32.3581C4.51849 32.4804 4.28848 32.6374 4.03983 32.8234C3.81714 32.9899 3.54346 33.113 3.19176 33.4334C2.94462 33.6585 2.71526 33.8369 2.48772 33.9825C2.21516 34.1569 1.99135 34.3137 1.73246 34.4686C1.41409 34.6591 1.22523 34.8923 1.02842 35.141C0.984996 35.1959 0.996758 35.2649 1.02749 35.3068C1.17542 35.5085 1.49219 35.5964 1.8439 35.6591C2.13625 35.7112 2.40235 35.8249 2.66186 35.9586C2.91479 36.089 2.85929 36.9771 2.99308 37.49C3.07107 37.7889 3.4789 37.8116 3.73779 37.9146C4.01963 38.0268 4.28599 38.0388 4.6377 38.0701C5.15387 38.1162 5.90019 38.163 7.54015 38.1738C8.32133 38.179 9.0665 38.081 9.41821 38.0497C9.69182 38.0253 9.93568 37.9568 10.8645 37.9255C11.3078 37.9105 11.9596 37.8116 12.4194 37.7498C12.6734 37.7156 12.9157 37.6464 13.2159 37.6151C13.4836 37.5871 13.7638 37.4602 14.2397 37.4288C14.5388 37.4091 15.0241 37.3149 15.3994 37.2118C15.6425 37.1451 15.8958 37.1286 16.1444 37.0669C16.3988 37.0037 16.7228 36.9424 17.0136 36.8291C17.2611 36.7327 17.51 36.6531 17.8617 36.6217C18.1596 36.5952 18.4413 36.4668 18.896 36.4355C19.1908 36.4151 19.4756 36.3426 19.8174 36.27C20.1736 36.1943 20.428 36.1564 20.9858 36.125C21.3622 36.1039 21.7727 36.0322 22.1142 35.9596C22.7131 35.8322 22.9734 35.846 23.4797 35.8146C23.7891 35.7955 24.0289 35.6597 24.8031 35.6284C25.2151 35.6117 26.1124 35.5144 26.863 35.4629C27.6911 35.4061 28.1041 35.3903 28.5604 35.3387C29.1793 35.2688 29.5122 35.2661 29.885 35.2146C30.5631 35.1208 31.5547 35.1419 32.2756 35.0389C32.5966 34.993 33.1317 34.9557 33.5383 34.9041C33.838 34.8662 34.8241 34.8315 35.5142 34.78C35.8218 34.757 36.0739 34.7489 36.4436 34.7179C37.305 34.7073 37.9569 34.6868 38.8596 34.6558C39.6804 34.6453 41.2374 34.6453 42.8417 34.6453" stroke="#0CDF1E" stroke-linecap="round"/>
<path d="M41.7242 34.2727C42.1756 34.2727 43.0889 34.2317 43.3375 34.2004C43.5944 34.168 44.0388 34.0865 44.4134 34.0349C44.7638 33.9867 45.0545 33.9213 45.891 33.89C46.2795 33.8754 46.5656 33.7971 47.2265 33.7556C47.6336 33.7299 47.9935 33.6109 48.7677 33.5795C49.2 33.562 49.6065 33.4656 49.9287 33.4141C50.227 33.3664 50.5179 33.3005 51.2514 33.2691C51.5986 33.2543 51.8428 33.1763 52.1734 33.1037C52.822 32.9611 53.2074 33.031 53.8984 32.9795C56.0594 32.8183 56.3129 33.0931 56.5615 33.2064C56.8032 33.3166 57.0579 33.3824 57.3065 33.4653C57.4304 33.5066 57.6166 33.5277 57.8131 33.497C58.0742 33.4561 58.1555 33.0944 58.3722 32.928C58.611 32.7446 58.9204 33.113 59.2206 33.3716C59.442 33.5623 59.7275 33.5898 60.0171 33.6413C60.1194 33.6595 60.2639 33.6519 60.348 33.6211C60.5938 33.5314 60.5768 33.1564 60.7833 32.9593C61.0038 32.7487 61.3206 32.7007 61.6108 32.607C61.9474 32.4983 62.2109 32.4934 62.6141 32.462C63.2226 32.4147 64.1355 32.4512 64.5996 32.5753C65.6512 32.8567 65.936 32.4934 66.1846 32.4105C66.4333 32.3276 66.9678 32.286 67.4052 32.2345C67.8591 32.181 68.5596 32.1618 69.3686 32.1103C71.0449 32.0035 71.4602 32.0377 71.7825 31.9861C72.0808 31.9384 72.8633 31.9135 73.4376 31.862C73.7142 31.8372 73.9455 31.8309 74.4381 31.7999C75.6659 31.7225 76.553 31.7688 76.7793 31.7378C77.5399 31.6335 78.2039 31.6652 78.8787 31.6136C80.2329 31.5102 80.6487 31.541 80.9607 31.4792C81.2122 31.4294 81.4981 31.3349 81.7268 31.2619C81.7625 31.2505 81.7278 31.1697 81.6865 31.1381C81.497 30.9927 81.2112 30.9413 80.9626 30.8584C80.7139 30.7755 80.4662 30.6929 80.1868 30.6203C79.7945 30.5183 79.5349 30.5476 79.2863 30.4961C79.0409 30.4453 78.749 30.4235 78.4792 30.3617C78.2099 30.3 77.9207 30.2583 77.6721 30.1754C77.4289 30.0944 77.1348 30.0311 76.865 29.9271C76.6058 29.8272 76.3686 29.5965 76.12 29.4307C75.8804 29.271 75.6236 29.2029 75.375 29.12C75.1263 29.0371 74.8786 28.9546 74.63 28.9232C74.373 28.8908 73.9287 28.8093 73.5745 28.7475C73.0835 28.6619 72.3331 28.7261 72.0743 28.7987C71.7834 28.8803 71.526 28.9123 71.2259 29.0468C70.9744 29.1594 70.7189 29.2228 70.4188 29.3572C70.1673 29.4698 69.9118 29.5742 69.6632 29.6782C69.4034 29.7868 69.1047 29.8436 68.8356 29.9162C68.4941 30.0084 68.1946 30.0299 67.8733 30.0612C67.7361 30.0746 67.4092 30.1131 67.0057 30.0823C66.7123 30.06 66.6003 29.6176 66.5888 29.1936C66.5819 28.9379 67.1354 28.9334 67.4263 28.8717C67.7751 28.7976 68.2331 28.7683 68.7909 28.737C68.9803 28.7263 69.1029 28.6646 69.2165 28.6028C69.2749 28.5711 69.3096 28.5001 69.3102 28.4377C69.3131 28.1504 68.9185 28.0233 68.6698 27.9404C68.4212 27.8575 67.6818 27.8159 67.1798 27.8777C66.8059 27.9237 66.3109 27.9811 65.9592 28.0124C65.6253 28.0422 65.2555 28.1052 64.1308 28.1366C63.6998 28.1486 63.4551 28.2294 63.0937 28.302C62.2903 28.4636 61.9042 28.3747 60.4654 28.4262C59.2769 28.4688 56.961 28.4368 55.7274 28.447C54.1422 28.4602 53.6457 28.5398 53.3455 28.5712C52.8811 28.6197 52.2178 28.664 51.5569 28.6954C51.1964 28.7125 50.5452 28.8093 49.9933 28.8608C49.6513 28.8927 49.116 28.9334 48.7305 28.9952C48.3877 29.0501 48.0581 29.0986 47.49 29.1299C47.1197 29.1504 46.7965 29.2439 46.4545 29.2954C45.9513 29.3712 45.6989 29.368 45.327 29.4196C44.6898 29.5079 44.3951 29.5332 44.1362 29.5645C43.7732 29.6085 43.3608 29.6574 43.0293 29.7402C42.9461 29.761 42.8641 29.7815 42.7399 29.7921C42.6158 29.8026 42.4519 29.8026 42.283 29.8026" stroke="#0CDF1E" stroke-linecap="round"/>
<path d="M42.9659 29.6784C42.843 29.6784 42.1241 29.6784 41.1 29.6682C40.669 29.6639 40.1765 29.6164 39.4939 29.6061C38.6235 29.593 37.5037 29.5952 36.9974 29.6266C36.6827 29.6461 36.4483 29.8436 36.2614 30.05C36.0609 30.2716 35.8895 30.4644 35.6924 30.6606C35.4824 30.8696 34.551 30.9201 33.9646 30.8584C33.704 30.8309 33.4682 30.6929 33.2196 30.5998C32.9548 30.5006 32.7232 30.3825 32.4746 30.2893C32.1927 30.1838 31.9161 30.0721 31.6675 29.9892C31.4003 29.9001 31.109 29.8647 30.8501 29.8132C30.5539 29.7542 30.3019 29.7405 30.0533 29.6787C29.6876 29.5879 29.1844 29.5754 28.9255 29.544C28.5827 29.5025 28.2531 29.4512 25.9948 29.4403C25.2508 29.4368 24.7975 29.5332 24.4247 29.5645C23.9895 29.6011 23.4106 29.6573 23.1104 29.6887C22.747 29.7266 22.293 29.7815 21.7352 29.8129C21.4155 29.8308 21.0116 29.9268 20.6785 29.9885C20.4208 30.0363 20.1822 30.154 19.9335 30.2369C19.6781 30.322 19.4372 30.4235 19.1885 30.5368C19.1261 30.5681 19.0646 30.5886 19.0022 30.6094C18.9399 30.6302 18.8784 30.6507 18.8151 30.7339" stroke="#0CDF1E" stroke-linecap="round"/>
<path d="M227.638 23.348C227.423 23.348 226.99 23.381 226.707 23.4144C226.461 23.4436 226.241 23.5638 226.041 23.6474C225.827 23.7369 225.559 23.8634 225.342 23.9553C225.132 24.044 224.942 24.1961 224.742 24.3049C224.542 24.4137 224.343 24.5457 224.101 24.696C223.899 24.8223 223.694 24.9122 223.444 25.0456C223.194 25.1792 222.994 25.3118 222.786 25.4037C222.53 25.5167 222.345 25.7113 222.104 25.8032C221.877 25.8897 221.696 26.028 221.446 26.1858C221.172 26.3591 220.897 26.4775 220.689 26.5856C220.464 26.7022 220.248 26.7601 220.048 26.852C219.828 26.9531 219.598 27.0598 219.398 27.1435C219.198 27.227 218.999 27.3265 218.758 27.4014C218.533 27.4711 218.317 27.6092 218.1 27.7011C217.89 27.7898 217.7 27.8759 217.409 28.0255C217.149 28.1593 216.901 28.2255 216.668 28.3086C216.24 28.4615 215.919 28.625 215.553 28.7911C215.173 28.9638 214.921 29.1245 214.695 29.2491C214.434 29.3935 214.254 29.524 214.046 29.6404C213.805 29.775 213.605 29.9066 213.405 30.0399C213.205 30.1733 213.006 30.2732 212.764 30.431C212.553 30.5689 212.357 30.7386 212.148 30.8558C211.892 30.9996 211.707 31.1881 211.507 31.3799C211.314 31.5655 211.058 31.7375 210.85 31.8546C210.574 32.0098 210.359 32.204 210.159 32.3373C209.962 32.4687 209.711 32.6864 209.377 32.9529C209.184 33.1067 208.96 33.2028 208.677 33.4605C208.479 33.6416 208.261 33.7522 208.011 33.9685C207.767 34.1803 207.479 34.3515 207.262 34.5678C207.078 34.7516 206.863 34.9009 206.696 35.084C206.496 35.3033 206.263 35.4333 205.657 36.0479C205.378 36.3311 205.198 36.582 205.073 36.782C204.952 36.9748 204.831 37.1813 204.764 37.3978C204.679 37.6761 204.631 37.8805 204.606 38.2464C204.6 38.3307 204.581 38.38 204.589 38.4302C204.597 38.4803 204.63 38.5298 204.672 38.5635C204.835 38.6949 205.162 38.6806 205.413 38.5895C205.619 38.5144 205.845 38.3979 206.062 38.2898C206.253 38.1945 206.461 38.0823 206.669 37.9734C206.911 37.8474 207.143 37.6828 207.36 37.5324C207.585 37.377 207.81 37.1993 208.051 37.0747C208.304 36.944 208.542 36.7009 208.751 36.5668C208.944 36.4426 209.108 36.2674 209.35 36.0511C209.549 35.873 209.757 35.685 209.966 35.5597C210.259 35.3831 210.457 35.1356 210.657 34.9853C210.842 34.8461 211.056 34.7361 211.297 34.5775C211.525 34.4281 211.705 34.2696 211.955 34.0783C212.232 33.8661 212.454 33.6873 212.663 33.5619C212.927 33.4028 213.104 33.2708 213.312 33.1042C213.512 32.9444 213.753 32.9212 213.953 32.8375C214.158 32.7517 214.402 32.7543 214.718 32.7621C214.96 32.768 214.986 33.1359 215.011 33.3774C215.046 33.7184 215.02 34.1847 214.945 34.3847C214.862 34.6056 214.621 34.817 214.454 35.034C214.309 35.2216 214.138 35.3834 213.963 35.5834C213.801 35.768 213.622 35.9827 213.438 36.1827C213.12 36.5289 212.656 36.9316 212.464 37.0902C212.292 37.233 212.107 37.3481 211.824 37.5976C211.616 37.7812 211.325 37.9804 211.066 38.1307C210.852 38.2552 210.658 38.3969 210.45 38.4971C210.194 38.6204 210.009 38.7465 209.809 38.8467C209.565 38.969 209.261 39.1791 209.01 39.3211C208.812 39.4332 208.611 39.5956 208.411 39.7289C208.184 39.8804 207.962 40.062 207.679 40.2696C207.445 40.4409 207.262 40.5944 207.062 40.6946C206.839 40.8065 206.663 40.944 206.471 41.0856C206.376 41.1557 206.313 41.2607 206.23 41.3354C206.19 41.3712 206.18 41.4265 206.204 41.4685C206.326 41.6781 206.611 41.6602 206.869 41.7601C207.143 41.8662 207.393 41.86 208.704 41.8687C209.245 41.8723 209.64 41.7771 210.015 41.686C210.387 41.5957 210.689 41.5773 210.923 41.5276C211.268 41.4542 211.737 41.4115 212.436 41.3693C212.825 41.3459 213.087 41.2447 213.42 41.2112C213.814 41.1716 214.2 41.0779 214.552 40.995C214.83 40.9295 215.134 40.8951 215.567 40.7041C215.869 40.5706 216.183 40.5125 216.433 40.4042C216.86 40.219 217.149 40.063 217.391 39.8965C217.593 39.7567 217.914 39.5646 218.206 39.3556C218.542 39.1151 218.714 38.8814 219.096 38.4741C219.321 38.2351 219.496 37.9494 219.738 37.7242C219.971 37.5065 220.113 37.2832 220.296 37.0914C220.472 36.9069 220.695 36.7338 220.87 36.5173C221.118 36.2103 221.344 36.0346 221.553 35.7849C221.768 35.5264 222.01 35.2695 222.202 35.0273C222.388 34.7936 222.543 34.6192 222.735 34.3865C222.938 34.1404 223.109 33.8871 223.251 33.6456C223.394 33.4013 223.642 33.1059 223.792 32.838C223.95 32.5566 224.208 32.173 224.399 31.8728C224.628 31.5141 224.807 31.29 224.899 31.09C225.007 30.855 225.207 30.6407 225.332 30.3993C225.437 30.197 225.524 29.9915 225.632 29.7915C225.736 29.5979 225.856 29.3922 225.99 29.1424C226.13 28.8794 226.256 28.643 226.389 28.4265C226.553 28.1598 226.655 27.9438 226.78 27.7438C226.909 27.5386 227.022 27.2945 227.138 27.0945C227.278 26.8551 227.487 26.5953 227.613 26.3541C227.828 25.9404 227.904 25.6634 228.029 25.4464C228.139 25.2558 228.221 25.0471 228.287 24.8471C228.354 24.647 228.42 24.4478 228.446 23.9576C228.454 23.7968 228.471 23.6981 228.421 23.615C228.238 23.5313 228.039 23.4649 226.811 23.4726C226.556 23.4974 226.523 23.5468 226.489 23.5977" stroke="#0CDF1E" stroke-linecap="round"/>
<path d="M193.577 60.5558C193.643 60.4893 193.974 60.4229 194.35 60.3977C194.477 60.3892 195.004 60.356 195.761 60.3478C196.472 60.34 197.172 60.2731 197.471 60.2147C197.963 60.1186 198.171 60.1233 198.495 60.098C198.821 60.0727 199.252 60.0234 199.569 59.9649C200.061 59.8739 200.301 59.8735 200.734 59.8483C200.835 59.8424 200.901 59.8236 201.52 59.8151C202.139 59.8066 203.309 59.8066 203.953 59.8149C204.831 59.8261 205.096 59.8895 205.644 59.9148C206.03 59.9325 206.461 59.9894 206.81 60.0479C207.386 60.1443 207.66 60.1392 207.959 60.1977C208.255 60.2554 208.558 60.2891 208.859 60.3475C209.138 60.4017 209.441 60.4389 209.699 60.5056C209.911 60.5603 210.14 60.6057 210.498 60.6969C210.818 60.7785 211.155 60.8215 211.505 60.9051C211.82 60.9803 212.154 61.0382 212.454 61.1049C212.719 61.1637 213.053 61.221 213.387 61.2632C213.625 61.2934 213.886 61.3878 214.186 61.4131C214.41 61.4319 214.635 61.5377 214.935 61.5629C215.159 61.5817 215.384 61.6875 215.609 61.7542C215.865 61.8299 216.133 61.8873 216.359 61.9539C216.599 62.0251 216.8 62.087 217 62.162C217.22 62.2447 217.465 62.3867 217.707 62.4948C217.938 62.598 218.148 62.6694 218.348 62.7613C218.576 62.8658 218.847 62.9191 219.047 63.0027C219.097 63.0195 219.147 63.036 219.197 63.0609C219.247 63.0859 219.297 63.1189 219.497 63.1528" stroke="#0CDF1E" stroke-linecap="round"/>
<path d="M218.948 63.0031C219.047 63.1024 219.28 63.2688 219.497 63.4021C219.702 63.528 219.896 63.6683 220.137 63.7934C220.333 63.8948 220.495 64.0349 220.695 64.118C220.96 64.228 221.195 64.4174 221.436 64.5922C221.64 64.7401 221.844 64.8669 222.085 65.0335C222.276 65.1648 222.493 65.2665 222.693 65.3998C222.893 65.5332 223.092 65.666 223.292 65.7911C223.485 65.9117 223.692 66.0326 223.892 66.149C224.1 66.2699 224.291 66.3822 224.483 66.5068C224.671 66.6289 224.807 66.7977 224.933 66.9978C225.049 67.1843 225.091 67.3971 225.066 67.5634C225.032 67.7929 224.825 67.9464 224.601 68.105C224.379 68.2621 224.193 68.4129 224.001 68.513C223.808 68.614 223.644 68.7625 223.444 68.8876C223.244 69.0123 222.995 69.1121 222.794 69.2372C222.608 69.3539 222.362 69.4288 222.145 69.5369C221.935 69.6417 221.696 69.7284 221.496 69.8365C221.302 69.9412 221.097 70.061 220.814 70.1529C220.569 70.2325 220.348 70.3607 220.147 70.4526C219.941 70.5476 219.748 70.6274 219.54 70.7023C219.291 70.792 219.066 70.8771 218.799 70.952C218.507 71.034 218.217 71.1268 217.983 71.1935C217.703 71.2735 217.468 71.3266 217.209 71.3933C216.967 71.4559 216.702 71.5264 216.386 71.6013C215.951 71.7043 215.653 71.7761 215.436 71.8345C215.13 71.9172 214.788 71.9259 214.521 71.9844C214.146 72.0665 213.872 72.0758 213.323 72.101C212.873 72.1217 212.356 72.1592 211.762 72.1841C211.218 72.207 210.179 72.1926 209.619 72.1844C208.892 72.1737 208.661 72.1097 208.361 72.0845C208.008 72.0547 207.613 71.9599 207.221 71.8518C206.915 71.7672 206.713 71.7102 206.513 71.6435C206.298 71.5719 206.064 71.5104 205.855 71.4437C205.617 71.3673 205.414 71.3106 205.132 71.2439C204.868 71.1818 204.565 71.1278 204.283 71.0524C203.878 70.9444 203.666 70.9111 203.384 70.8444C203.151 70.7896 202.851 70.7283 202.576 70.6446C202.346 70.5749 202.052 70.4286 201.727 70.3782C201.453 70.3357 201.236 70.2119 201.011 70.1452C200.755 70.0695 200.52 70.0121 200.279 69.9372C199.991 69.8478 199.638 69.7124 199.413 69.6043C199.18 69.4924 198.84 69.3469 198.572 69.2462C198.376 69.1728 198.223 69.0132 198.014 68.8969C197.773 68.7622 197.474 68.5977 197.224 68.4888C196.986 68.3859 196.774 68.1812 196.574 68.0893C196.352 67.987 196.175 67.8146 195.925 67.6817C195.612 67.5153 195.426 67.2822 195.226 67.1406C194.999 66.9797 194.777 66.8327 194.61 66.6497C194.41 66.4303 194.21 66.3003 194.002 66.0588C193.853 65.8852 193.711 65.701 193.403 65.3848C193.192 65.167 192.929 65.0347 192.687 64.8103C192.48 64.6172 192.279 64.4854 192.113 64.2941C191.879 64.0688 191.697 63.9195 191.547 63.7699C191.48 63.7028 191.43 63.6533 191.379 63.6024" stroke="#0CDF1E" stroke-linecap="round"/>
<path d="M192.178 64.4015C192.079 64.3685 191.88 64.2357 191.688 64.0526C191.513 63.8853 191.363 63.7033 191.222 63.5115C191.089 63.3312 190.997 63.1539 190.847 62.9953C190.704 62.8433 190.664 62.6045 190.58 62.4045C190.56 62.3557 190.547 62.3049 190.572 62.2712C190.737 62.0431 191.179 62.2699 191.387 62.3618C191.643 62.4748 191.911 62.6355 192.128 62.8028C192.318 62.9496 192.527 63.069 192.694 63.2356C192.873 63.4149 193.159 63.4685 193.376 63.5604C193.599 63.6549 193.826 63.7682 194.166 63.8933C194.469 64.0043 194.741 64.0519 194.974 64.143C195.174 64.2206 195.407 64.2846 195.64 64.3927C195.911 64.5179 196.123 64.5843 196.389 64.6674C196.738 64.7765 197.021 64.9499 197.272 65.0505C197.473 65.1311 197.77 65.2665 198.245 65.4828C198.565 65.6288 198.77 65.683 199.02 65.7912C199.259 65.895 199.502 65.9327 199.719 65.9994C199.921 66.0613 200.118 66.1655 200.327 66.2491C200.574 66.3485 200.818 66.4152 201.059 66.4656C201.285 66.5129 201.533 66.6649 201.874 66.7568C202.251 66.8582 202.516 66.9316 202.757 66.9983C202.968 67.0566 203.198 67.1314 203.423 67.1981C203.722 67.2865 204.064 67.2812 204.264 67.3479C204.475 67.4182 204.713 67.431 204.921 67.4977C205.191 67.5839 205.495 67.6308 205.712 67.6975C205.914 67.7594 206.178 67.8306 206.428 67.889C206.705 67.9537 206.911 67.9804 207.127 68.0389C207.451 68.1263 207.793 68.1472 208.043 68.1887C208.241 68.1972 208.426 68.2137 208.921 68.2386C209.351 68.2471 210.142 68.2471 211.057 68.2971" stroke="#0CDF1E" stroke-linecap="round"/>
<path d="M210.957 68.4968C211.072 68.4469 211.439 68.4139 211.954 68.3887C212.276 68.3729 212.603 68.297 212.862 68.2473C213.109 68.2001 213.402 68.1472 213.653 68.0975C213.875 68.0535 214.498 67.9974 215.298 67.9559C217.297 67.8523 217.532 67.8645 217.749 67.7564C217.799 67.7313 217.848 67.7147 217.882 67.6815C218.066 67.5005 217.916 67.0994 217.808 66.8579C217.717 66.6556 217.666 66.4501 217.558 66.2501C217.454 66.0566 217.367 65.8508 217.118 65.5596C216.891 65.2948 216.652 65.1346 216.452 65.0095C216.259 64.8889 215.986 64.801 215.686 64.7181C215.363 64.6288 214.296 64.6512 213.449 64.6097C212.407 64.5588 212.075 64.6512 211.584 64.6926C210.82 64.7572 210.242 64.7176 210.101 64.7508C209.574 64.8749 208.86 64.834 208.619 64.8592C208.509 64.8707 208.394 64.9174 207.89 64.9423C206.646 65.004 205.763 64.9343 205.664 64.9011C205.438 64.8258 205.132 64.818 204.707 64.7928C204.442 64.777 204.15 64.7011 203.908 64.6514C203.646 64.5978 203.351 64.5513 203.108 64.5016C202.847 64.448 202.585 64.3685 202.301 64.2936C201.796 64.1599 201.236 63.9689 201.011 63.9023C200.755 63.8266 200.52 63.7692 200.32 63.6943C200.079 63.6041 199.788 63.5195 199.571 63.4445C199.307 63.3535 198.989 63.2198 198.73 63.1117C198.52 63.0238 198.289 62.9531 198.072 62.9034C197.852 62.8528 197.59 62.7703 197.324 62.6954C197.061 62.6216 196.874 62.5206 196.666 62.4539C196.407 62.3712 196.043 62.2379 195.734 62.146C195.508 62.0791 195.326 61.9712 195.126 61.8963C194.913 61.8165 194.727 61.7215 194.526 61.6051C194.319 61.4842 194.127 61.3719 193.927 61.2473C193.813 61.1759 193.744 61.0558 193.702 60.9561C193.682 60.9091 193.71 60.8565 193.743 60.8145C193.887 60.633 194.125 60.5728 194.367 60.5476C194.475 60.5229 194.592 60.4894 194.807 60.4644C194.956 60.4559 195.187 60.4559 195.425 60.4559" stroke="#0CDF1E" stroke-linecap="round"/>
<path d="M26.2417 18.6367C25.8771 17.8278 25.5182 17.1214 25.165 16.5176C24.8118 15.9023 24.3504 15.2643 23.7808 14.6035C23.2111 13.9427 22.6016 13.4015 21.9521 12.98C21.3027 12.5584 20.5052 12.2109 19.5596 11.9375C18.6139 11.6641 17.5715 11.5273 16.4321 11.5273C15.2017 11.5273 14.0851 11.778 13.0825 12.2793C12.0799 12.7806 11.2539 13.4357 10.6045 14.2446C9.96647 15.0535 9.42529 15.9935 8.98096 17.0645C8.54801 18.124 8.2404 19.195 8.05811 20.2773C7.87581 21.3483 7.78467 22.4364 7.78467 23.5415C7.78467 24.6353 7.88151 25.7233 8.0752 26.8057C8.26888 27.8766 8.58789 28.9419 9.03223 30.0015C9.48796 31.061 10.0462 31.9896 10.707 32.7871C11.3678 33.5846 12.1995 34.234 13.2021 34.7354C14.2161 35.2253 15.3384 35.4702 16.5688 35.4702C19.0754 35.4702 20.8185 34.9119 21.7983 33.7954V26.8569C21.7983 26.6177 21.7015 26.4069 21.5078 26.2246C21.3141 26.0309 21.092 25.8828 20.8413 25.7803C20.5907 25.6777 20.2546 25.5866 19.833 25.5068C19.4229 25.4157 19.0868 25.353 18.8247 25.3188C18.5627 25.2847 18.2323 25.2505 17.8335 25.2163C17.7879 25.034 17.7651 24.8973 17.7651 24.8062C17.7651 24.7264 17.7879 24.5954 17.8335 24.4131C20.4084 24.5042 22.3908 24.5498 23.7808 24.5498C25.1935 24.5498 27.1759 24.5042 29.728 24.4131C29.785 24.641 29.8135 24.772 29.8135 24.8062C29.8135 24.8517 29.785 24.9884 29.728 25.2163C29.3293 25.2505 28.9989 25.2847 28.7368 25.3188C28.4748 25.353 28.133 25.4157 27.7114 25.5068C27.3013 25.5866 26.9709 25.6777 26.7202 25.7803C26.481 25.8828 26.2645 26.0309 26.0708 26.2246C25.8771 26.4069 25.7803 26.6177 25.7803 26.8569V29.3862C25.7803 31.5509 26.0366 33.3226 26.5493 34.7012C24.6694 35.3962 23.0003 35.9032 21.542 36.2222C20.0837 36.5412 18.4259 36.7007 16.5688 36.7007C15.4637 36.7007 14.3529 36.5868 13.2363 36.3589C12.1198 36.131 10.9463 35.7038 9.71582 35.0771C8.49674 34.4505 7.42008 33.6644 6.48584 32.7188C5.56299 31.7731 4.79395 30.5085 4.17871 28.9248C3.57487 27.3411 3.27295 25.5467 3.27295 23.5415C3.27295 22.0946 3.42676 20.7559 3.73438 19.5254C4.05339 18.2835 4.47493 17.2183 4.99902 16.3296C5.52311 15.4409 6.14404 14.6434 6.86182 13.937C7.59098 13.2306 8.34863 12.6553 9.13477 12.2109C9.9209 11.7666 10.7469 11.402 11.6128 11.1172C12.4901 10.821 13.3218 10.6159 14.1079 10.502C14.894 10.3766 15.6688 10.314 16.4321 10.314C17.7082 10.314 18.9215 10.3937 20.0723 10.5532C21.2344 10.7013 22.3908 10.8893 23.5415 11.1172C24.6922 11.3337 25.6037 11.4818 26.2759 11.5615C26.105 12.0742 26.0195 12.7977 26.0195 13.7319C26.0195 15.2814 26.2987 16.791 26.8569 18.2607C26.7886 18.4658 26.5835 18.5911 26.2417 18.6367ZM32.001 21.9351C34.2113 21.7072 36.1367 21.2401 37.7773 20.5337C38.0622 20.6476 38.2616 20.7957 38.3755 20.978V23.9175C38.797 23.12 39.4237 22.3452 40.2554 21.5933C41.0985 20.8413 41.9757 20.4653 42.8872 20.4653C43.5708 20.4653 44.1234 20.6704 44.5449 21.0806C44.9779 21.4793 45.1943 22.0319 45.1943 22.7383C45.1943 23.4105 44.995 23.9346 44.5962 24.3105C44.1974 24.6865 43.6961 24.8745 43.0923 24.8745C42.534 24.8745 42.0726 24.6979 41.708 24.3447C41.3548 23.9801 41.1611 23.5016 41.127 22.9092C40.6484 23.1143 40.1016 23.57 39.4863 24.2764C38.8825 24.9827 38.5122 25.6834 38.3755 26.3784C38.3755 28.9191 38.4211 31.3459 38.5122 33.6587C38.5236 33.9549 38.6318 34.2113 38.8369 34.4277C39.042 34.6328 39.3439 34.7923 39.7427 34.9062C40.1414 35.0202 40.4718 35.1056 40.7339 35.1626C40.9959 35.2082 41.3377 35.2537 41.7593 35.2993C41.8276 35.436 41.8618 35.5785 41.8618 35.7266C41.8618 35.8405 41.8276 35.9658 41.7593 36.1025C40.0503 36.0342 38.3584 36 36.6836 36C35.2936 36 33.8467 36.0342 32.3428 36.1025C32.2972 35.9202 32.2744 35.7949 32.2744 35.7266C32.2744 35.6696 32.2972 35.5272 32.3428 35.2993C32.7188 35.2537 33.0264 35.2082 33.2656 35.1626C33.5049 35.1056 33.8011 35.0202 34.1543 34.9062C34.5075 34.7923 34.7752 34.6328 34.9575 34.4277C35.1398 34.2113 35.2367 33.9549 35.248 33.6587C35.2936 32.5308 35.3164 31.1636 35.3164 29.5571C35.3164 29.0216 35.3107 28.1102 35.2993 26.8228C35.2879 25.5353 35.2822 24.4074 35.2822 23.439C34.6328 23.0402 33.5391 22.8066 32.001 22.7383C31.9554 22.556 31.9326 22.4136 31.9326 22.311C31.9326 22.2427 31.9554 22.1174 32.001 21.9351ZM60.7803 26.9424H51.4663C51.4207 27.626 51.3979 28.2298 51.3979 28.7539C51.4321 30.4515 51.9277 31.813 52.8848 32.8384C53.8418 33.8524 55.1235 34.3594 56.73 34.3594C57.1629 34.3594 57.5674 34.3138 57.9434 34.2227C58.3193 34.1201 58.627 34.0062 58.8662 33.8809C59.1169 33.7555 59.3732 33.5732 59.6353 33.334C59.8973 33.0947 60.0853 32.9067 60.1992 32.77C60.3245 32.6219 60.4897 32.4054 60.6948 32.1206C60.8999 31.8244 61.0366 31.6364 61.105 31.5566C61.3784 31.6136 61.6006 31.7389 61.7715 31.9326C61.2018 33.4593 60.3188 34.6043 59.1226 35.3677C57.9263 36.1196 56.6274 36.4956 55.2261 36.4956C54.5311 36.4956 53.8532 36.4045 53.1924 36.2222C52.543 36.0513 51.9106 35.7664 51.2954 35.3677C50.6802 34.9689 50.1447 34.479 49.689 33.8979C49.2332 33.3055 48.8687 32.5706 48.5952 31.6934C48.3218 30.8047 48.1851 29.8249 48.1851 28.7539C48.1851 26.3499 48.9199 24.3675 50.3896 22.8066C51.8594 21.2458 53.6652 20.4653 55.8071 20.4653C56.7528 20.4653 57.5731 20.6021 58.2681 20.8755C58.9744 21.1375 59.5213 21.4964 59.9087 21.9521C60.3075 22.4079 60.598 22.9092 60.7803 23.4561C60.974 23.9915 61.0708 24.5669 61.0708 25.1821C61.0708 25.7518 60.974 26.3385 60.7803 26.9424ZM55.397 21.5762C54.6108 21.5762 53.8646 21.9237 53.1582 22.6187C52.4632 23.3136 51.9619 24.3675 51.6543 25.7803H57.8066C57.9206 25.3473 57.9775 24.9714 57.9775 24.6523C57.9775 23.7637 57.7725 23.0288 57.3623 22.4478C56.9521 21.8667 56.297 21.5762 55.397 21.5762ZM77.8701 26.9424H68.5562C68.5106 27.626 68.4878 28.2298 68.4878 28.7539C68.522 30.4515 69.0176 31.813 69.9746 32.8384C70.9316 33.8524 72.2134 34.3594 73.8198 34.3594C74.2528 34.3594 74.6572 34.3138 75.0332 34.2227C75.4092 34.1201 75.7168 34.0062 75.9561 33.8809C76.2067 33.7555 76.4631 33.5732 76.7251 33.334C76.9871 33.0947 77.1751 32.9067 77.2891 32.77C77.4144 32.6219 77.5796 32.4054 77.7847 32.1206C77.9897 31.8244 78.1265 31.6364 78.1948 31.5566C78.4683 31.6136 78.6904 31.7389 78.8613 31.9326C78.2917 33.4593 77.4087 34.6043 76.2124 35.3677C75.0161 36.1196 73.7173 36.4956 72.3159 36.4956C71.6209 36.4956 70.943 36.4045 70.2822 36.2222C69.6328 36.0513 69.0005 35.7664 68.3853 35.3677C67.77 34.9689 67.2345 34.479 66.7788 33.8979C66.3231 33.3055 65.9585 32.5706 65.6851 31.6934C65.4116 30.8047 65.2749 29.8249 65.2749 28.7539C65.2749 26.3499 66.0098 24.3675 67.4795 22.8066C68.9492 21.2458 70.755 20.4653 72.897 20.4653C73.8426 20.4653 74.6629 20.6021 75.3579 20.8755C76.0643 21.1375 76.6112 21.4964 76.9985 21.9521C77.3973 22.4079 77.6878 22.9092 77.8701 23.4561C78.0638 23.9915 78.1606 24.5669 78.1606 25.1821C78.1606 25.7518 78.0638 26.3385 77.8701 26.9424ZM72.4868 21.5762C71.7007 21.5762 70.9544 21.9237 70.248 22.6187C69.5531 23.3136 69.0518 24.3675 68.7441 25.7803H74.8965C75.0104 25.3473 75.0674 24.9714 75.0674 24.6523C75.0674 23.7637 74.8623 23.0288 74.4521 22.4478C74.042 21.8667 73.3869 21.5762 72.4868 21.5762ZM90.6191 35.2993C90.6875 35.436 90.7217 35.5785 90.7217 35.7266C90.7217 35.8405 90.6875 35.9658 90.6191 36.1025C89.1152 36.0342 87.6569 36 86.2441 36C84.8542 36 83.4072 36.0342 81.9033 36.1025C81.8577 35.9202 81.835 35.7949 81.835 35.7266C81.835 35.6696 81.8577 35.5272 81.9033 35.2993C82.2793 35.2537 82.5869 35.2082 82.8262 35.1626C83.0654 35.1056 83.3617 35.0202 83.7148 34.9062C84.068 34.7923 84.3358 34.6328 84.5181 34.4277C84.7004 34.2113 84.7972 33.9549 84.8086 33.6587C84.8542 32.5308 84.877 31.1636 84.877 29.5571C84.877 29.0216 84.8713 28.1102 84.8599 26.8228C84.8485 25.5353 84.8428 24.4074 84.8428 23.439C84.1934 23.0402 83.0996 22.8066 81.5615 22.7383C81.516 22.556 81.4932 22.4136 81.4932 22.311C81.4932 22.2427 81.516 22.1174 81.5615 21.9351C83.7718 21.7072 85.6973 21.2401 87.3379 20.5337C87.6227 20.6476 87.8221 20.7957 87.936 20.978V23.6782C89.0412 22.7098 90.1007 21.9351 91.1147 21.354C92.1287 20.7616 93.1541 20.4653 94.1909 20.4653C95.4897 20.4653 96.4069 20.8299 96.9424 21.5591C97.4893 22.2882 97.7741 23.4276 97.7969 24.9771L97.9678 33.6587C97.9792 33.9549 98.0646 34.2113 98.2241 34.4277C98.395 34.6328 98.6343 34.7923 98.9419 34.9062C99.2609 35.0202 99.5229 35.1056 99.728 35.1626C99.9331 35.2082 100.201 35.2537 100.531 35.2993C100.577 35.5272 100.6 35.681 100.6 35.7607C100.6 35.8519 100.577 35.9658 100.531 36.1025C99.0615 36.0342 97.7057 36 96.4639 36C95.2562 36 93.9175 36.0342 92.4478 36.1025C92.4022 35.9202 92.3794 35.7835 92.3794 35.6924C92.3794 35.6126 92.4022 35.4816 92.4478 35.2993C92.744 35.2537 92.9889 35.2082 93.1826 35.1626C93.3877 35.1056 93.6156 35.0202 93.8662 34.9062C94.1283 34.7923 94.3219 34.6328 94.4473 34.4277C94.584 34.2113 94.6523 33.9549 94.6523 33.6587L94.6865 25.541C94.6865 23.4788 94.0656 22.4478 92.8237 22.4478C91.6616 22.4478 90.0324 23.2225 87.936 24.772C87.936 28.0874 87.9816 31.0496 88.0728 33.6587C88.0841 33.9549 88.1696 34.2113 88.3291 34.4277C88.5 34.6328 88.7393 34.7923 89.0469 34.9062C89.3545 35.0202 89.6108 35.1056 89.8159 35.1626C90.021 35.2082 90.2887 35.2537 90.6191 35.2993ZM111.913 10.9121C113.827 10.9805 115.821 11.0146 117.895 11.0146H119.86C120.692 11.0033 122.127 10.9976 124.167 10.9976C126.217 10.9862 127.966 10.9748 129.413 10.9634C130.871 10.952 132.318 10.9235 133.754 10.8779C133.845 11.6641 134.039 12.4844 134.335 13.3389C134.631 14.182 134.916 14.877 135.189 15.4238C135.463 15.9593 135.822 16.6087 136.266 17.3721C136.175 17.5658 135.976 17.7196 135.668 17.8335C135.258 17.0588 134.762 16.3695 134.181 15.7656C133.6 15.1618 132.865 14.5921 131.977 14.0566C131.099 13.5212 130 13.0825 128.678 12.7407C127.368 12.3989 125.875 12.1711 124.201 12.0571H119.86C119.712 16.979 119.638 20.6989 119.638 23.2168H124.508C124.793 23.2168 125.061 23.194 125.312 23.1484C125.562 23.0915 125.796 23.0003 126.012 22.875C126.24 22.7497 126.434 22.63 126.593 22.5161C126.764 22.3908 126.941 22.2085 127.123 21.9692C127.317 21.7186 127.471 21.5135 127.584 21.354C127.698 21.1945 127.841 20.9438 128.012 20.6021C128.183 20.2489 128.314 19.9811 128.405 19.7988C128.496 19.6165 128.633 19.3146 128.815 18.8931C129.009 18.4715 129.151 18.1639 129.242 17.9702C129.641 18.1411 129.857 18.2835 129.892 18.3975C129.219 20.152 128.883 21.9351 128.883 23.7466C128.883 25.5467 129.219 27.3354 129.892 29.1128C129.812 29.2723 129.595 29.4204 129.242 29.5571C128.547 27.8823 128.017 26.7601 127.653 26.1904C126.81 24.9258 125.762 24.2878 124.508 24.2764H119.638C119.638 26.7259 119.7 29.8534 119.826 33.6587C119.837 33.9549 119.968 34.2113 120.219 34.4277C120.469 34.6328 120.828 34.7923 121.295 34.9062C121.774 35.0202 122.173 35.1056 122.492 35.1626C122.822 35.2082 123.249 35.2537 123.773 35.2993C123.819 35.5272 123.842 35.681 123.842 35.7607C123.842 35.8519 123.819 35.9658 123.773 36.1025C121.837 36.0342 119.854 36 117.826 36C115.775 36 113.793 36.0342 111.879 36.1025C111.833 35.9658 111.811 35.8519 111.811 35.7607C111.811 35.681 111.833 35.5272 111.879 35.2993C112.221 35.2651 112.494 35.2367 112.699 35.2139C112.904 35.1911 113.183 35.1512 113.537 35.0942C113.901 35.0373 114.192 34.9746 114.408 34.9062C114.636 34.8265 114.87 34.7297 115.109 34.6157C115.348 34.5018 115.525 34.3651 115.639 34.2056C115.764 34.0461 115.827 33.8638 115.827 33.6587C115.963 30.0926 116.032 26.498 116.032 22.875C116.032 19.1836 115.975 15.9992 115.861 13.3218C115.849 13.0256 115.718 12.7749 115.468 12.5698C115.229 12.3647 114.864 12.2052 114.374 12.0913C113.884 11.9774 113.491 11.9033 113.195 11.8691C112.899 11.8236 112.471 11.7723 111.913 11.7153C111.868 11.5103 111.845 11.3678 111.845 11.2881C111.845 11.2197 111.868 11.0944 111.913 10.9121ZM139.188 24.772C139.188 23.5187 139.758 22.4876 140.897 21.6787C142.048 20.8698 143.404 20.4653 144.965 20.4653C146.879 20.4653 148.223 20.847 148.998 21.6104C149.784 22.3737 150.177 23.6611 150.177 25.4727V32.5649C150.177 33.203 150.411 33.522 150.878 33.522C151.254 33.522 151.732 33.0662 152.313 32.1548C152.724 32.189 153.003 32.3713 153.151 32.7017C153.071 32.8156 152.934 33.0207 152.741 33.3169C152.547 33.6131 152.405 33.8239 152.313 33.9492C152.222 34.0745 152.08 34.2682 151.886 34.5303C151.693 34.7809 151.533 34.9689 151.408 35.0942C151.294 35.2196 151.134 35.3677 150.929 35.5386C150.736 35.7095 150.553 35.8405 150.382 35.9316C150.223 36.0114 150.035 36.0798 149.818 36.1367C149.602 36.2051 149.385 36.2393 149.169 36.2393C148.599 36.2393 148.126 36.0342 147.75 35.624C147.386 35.2139 147.169 34.5815 147.101 33.7271C147.09 33.7384 146.913 33.9036 146.571 34.2227C146.229 34.5417 145.99 34.7581 145.854 34.8721C145.728 34.9746 145.483 35.1626 145.119 35.436C144.765 35.6981 144.464 35.8861 144.213 36C143.962 36.1139 143.649 36.2222 143.273 36.3247C142.897 36.4386 142.527 36.4956 142.162 36.4956C141.581 36.4956 141.063 36.4159 140.607 36.2563C140.163 36.0968 139.815 35.9032 139.564 35.6753C139.314 35.4474 139.109 35.1854 138.949 34.8892C138.79 34.5815 138.681 34.3024 138.625 34.0518C138.579 33.8011 138.556 33.5505 138.556 33.2998C138.556 32.5365 138.681 31.8927 138.932 31.3687C139.194 30.8446 139.673 30.3547 140.368 29.8989C141.074 29.4432 141.94 29.0387 142.965 28.6855C143.991 28.3324 145.369 27.9336 147.101 27.4893V25.1138C147.101 23.9631 146.845 23.1029 146.332 22.5332C145.831 21.9635 145.153 21.6787 144.298 21.6787C143.535 21.6787 142.891 21.8325 142.367 22.1401C141.854 22.4364 141.541 22.7839 141.427 23.1826C142.544 23.3535 143.102 23.9631 143.102 25.0112C143.102 25.4897 142.931 25.9113 142.589 26.2759C142.248 26.6405 141.769 26.8228 141.154 26.8228C140.641 26.8228 140.185 26.6462 139.787 26.293C139.388 25.9284 139.188 25.4214 139.188 24.772ZM147.101 32.1548V28.583C146.053 28.8223 145.187 29.0843 144.503 29.3691C143.82 29.6426 143.296 29.9445 142.931 30.2749C142.578 30.6053 142.333 30.9471 142.196 31.3003C142.06 31.6421 141.991 32.0409 141.991 32.4966C141.991 33.0662 142.156 33.5163 142.487 33.8467C142.829 34.1657 143.244 34.3252 143.734 34.3252C144.874 34.3252 145.996 33.6017 147.101 32.1548ZM175.59 35.2993C175.875 35.2537 176.108 35.2082 176.291 35.1626C176.484 35.1056 176.695 35.0202 176.923 34.9062C177.151 34.7923 177.322 34.6328 177.436 34.4277C177.549 34.2113 177.606 33.9549 177.606 33.6587L177.641 25.541C177.641 23.4788 177.025 22.4478 175.795 22.4478C175.18 22.4478 174.513 22.6414 173.795 23.0288C173.078 23.4162 172.217 23.9972 171.215 24.772V24.9771L171.352 33.6587C171.363 33.9549 171.448 34.2113 171.608 34.4277C171.779 34.6328 172.018 34.7923 172.326 34.9062C172.633 35.0202 172.89 35.1056 173.095 35.1626C173.3 35.2082 173.568 35.2537 173.898 35.2993C173.944 35.5272 173.966 35.681 173.966 35.7607C173.966 35.8519 173.944 35.9658 173.898 36.1025C172.428 36.0342 171.09 36 169.882 36C168.777 36 167.489 36.0342 166.02 36.1025C165.974 35.9202 165.951 35.7835 165.951 35.6924C165.951 35.6126 165.974 35.4816 166.02 35.2993C166.304 35.2537 166.544 35.2082 166.737 35.1626C166.931 35.1056 167.142 35.0202 167.37 34.9062C167.597 34.7923 167.768 34.6328 167.882 34.4277C167.996 34.2113 168.053 33.9549 168.053 33.6587L168.087 25.541C168.087 23.4788 167.472 22.4478 166.242 22.4478C165.626 22.4478 164.971 22.6357 164.276 23.0117C163.593 23.3877 162.733 23.9631 161.696 24.7378C161.696 28.076 161.741 31.0496 161.833 33.6587C161.844 33.9549 161.924 34.2113 162.072 34.4277C162.22 34.6328 162.431 34.7923 162.704 34.9062C162.989 35.0202 163.234 35.1056 163.439 35.1626C163.644 35.2082 163.9 35.2537 164.208 35.2993C164.276 35.436 164.311 35.5785 164.311 35.7266C164.311 35.8405 164.276 35.9658 164.208 36.1025C162.704 36.0342 161.303 36 160.004 36C158.614 36 157.167 36.0342 155.663 36.1025C155.618 35.9202 155.595 35.7949 155.595 35.7266C155.595 35.6696 155.618 35.5272 155.663 35.2993C156.039 35.2537 156.347 35.2082 156.586 35.1626C156.825 35.1056 157.121 35.0202 157.475 34.9062C157.828 34.7923 158.096 34.6328 158.278 34.4277C158.46 34.2113 158.557 33.9549 158.568 33.6587C158.614 32.5308 158.637 31.1636 158.637 29.5571C158.637 29.0216 158.631 28.1102 158.62 26.8228C158.608 25.5353 158.603 24.4074 158.603 23.439C157.953 23.0402 156.859 22.8066 155.321 22.7383C155.276 22.556 155.253 22.4136 155.253 22.311C155.253 22.2427 155.276 22.1174 155.321 21.9351C157.532 21.7072 159.457 21.2401 161.098 20.5337C161.382 20.6476 161.582 20.7957 161.696 20.978V23.6782C162.231 23.1883 162.681 22.7952 163.046 22.499C163.41 22.1914 163.855 21.861 164.379 21.5078C164.914 21.1546 165.444 20.8926 165.968 20.7217C166.504 20.5508 167.051 20.4653 167.609 20.4653C168.725 20.4653 169.557 20.7331 170.104 21.2686C170.651 21.7926 170.993 22.6187 171.129 23.7466C171.71 23.2225 172.172 22.818 172.514 22.5332C172.867 22.2484 173.323 21.918 173.881 21.542C174.439 21.166 174.986 20.8926 175.521 20.7217C176.057 20.5508 176.604 20.4653 177.162 20.4653C178.45 20.4653 179.367 20.8299 179.914 21.5591C180.46 22.2882 180.745 23.4276 180.768 24.9771L180.939 33.6587C180.95 33.9549 181.036 34.2113 181.195 34.4277C181.366 34.6328 181.605 34.7923 181.913 34.9062C182.221 35.0202 182.477 35.1056 182.682 35.1626C182.887 35.2082 183.155 35.2537 183.485 35.2993C183.542 35.5841 183.571 35.738 183.571 35.7607C183.571 35.8177 183.542 35.9316 183.485 36.1025C182.016 36.0342 180.666 36 179.435 36C178.341 36 177.06 36.0342 175.59 36.1025C175.533 35.8747 175.504 35.738 175.504 35.6924C175.504 35.6582 175.533 35.5272 175.59 35.2993ZM185.741 21.9351C187.951 21.7072 189.877 21.2401 191.518 20.5337C191.802 20.6476 192.002 20.7957 192.116 20.978C192.116 26.8911 192.161 31.118 192.252 33.6587C192.264 33.9549 192.349 34.2113 192.509 34.4277C192.68 34.6328 192.919 34.7923 193.227 34.9062C193.534 35.0202 193.791 35.1056 193.996 35.1626C194.201 35.2082 194.468 35.2537 194.799 35.2993C194.867 35.436 194.901 35.5785 194.901 35.7266C194.901 35.8747 194.867 36 194.799 36.1025C193.295 36.0342 191.837 36 190.424 36C189.034 36 187.587 36.0342 186.083 36.1025C186.037 35.9202 186.015 35.7949 186.015 35.7266C186.015 35.6696 186.037 35.5272 186.083 35.2993C186.459 35.2537 186.767 35.2082 187.006 35.1626C187.245 35.1056 187.541 35.0202 187.895 34.9062C188.248 34.7923 188.515 34.6328 188.698 34.4277C188.88 34.2113 188.977 33.9549 188.988 33.6587C189.034 32.5308 189.057 31.1636 189.057 29.5571C189.057 29.0216 189.051 28.1102 189.04 26.8228C189.028 25.5353 189.022 24.4074 189.022 23.439C188.373 23.0402 187.279 22.8066 185.741 22.7383C185.696 22.556 185.673 22.4136 185.673 22.311C185.673 22.2427 185.696 22.1174 185.741 21.9351ZM188.424 14.7915C188.424 14.2104 188.629 13.7148 189.04 13.3047C189.461 12.8945 189.957 12.6895 190.526 12.6895C191.107 12.6895 191.603 12.8945 192.013 13.3047C192.423 13.7148 192.628 14.2104 192.628 14.7915C192.628 15.3612 192.423 15.8568 192.013 16.2783C191.603 16.6885 191.107 16.8936 190.526 16.8936C189.957 16.8936 189.461 16.6885 189.04 16.2783C188.629 15.8568 188.424 15.3612 188.424 14.7915ZM197.089 11.4248C199.254 11.2197 201.173 10.7526 202.848 10.0234C203.156 10.1488 203.355 10.3026 203.446 10.4849C203.446 23.3934 203.492 31.118 203.583 33.6587C203.594 33.8979 203.663 34.1144 203.788 34.3081C203.925 34.4904 204.073 34.6385 204.232 34.7524C204.392 34.855 204.608 34.9518 204.882 35.043C205.155 35.1227 205.366 35.1797 205.514 35.2139C205.674 35.2367 205.884 35.2651 206.146 35.2993C206.215 35.436 206.249 35.5785 206.249 35.7266C206.249 35.8747 206.215 36 206.146 36.1025C204.643 36.0342 203.184 36 201.771 36C200.382 36 198.935 36.0342 197.431 36.1025C197.385 35.9202 197.362 35.7949 197.362 35.7266C197.362 35.6696 197.385 35.5272 197.431 35.2993C197.807 35.2537 198.109 35.2082 198.336 35.1626C198.576 35.1056 198.872 35.0202 199.225 34.9062C199.59 34.7923 199.863 34.6328 200.045 34.4277C200.228 34.2113 200.325 33.9549 200.336 33.6587C200.382 32.5308 200.404 30.0072 200.404 26.0879C200.404 24.2764 200.399 21.8097 200.387 18.688C200.376 15.5662 200.37 13.6465 200.37 12.9287C199.721 12.5527 198.627 12.3192 197.089 12.228C197.032 12.0799 197.003 11.9432 197.003 11.8179C197.003 11.7039 197.032 11.5729 197.089 11.4248ZM206.146 20.8413C207.65 20.9097 209.171 20.9438 210.709 20.9438C212.111 20.9438 213.546 20.9097 215.016 20.8413C215.062 21.0236 215.084 21.166 215.084 21.2686C215.084 21.3369 215.062 21.4622 215.016 21.6445C214.674 21.6673 214.401 21.6958 214.196 21.73C213.991 21.7528 213.723 21.7983 213.393 21.8667C213.074 21.9351 212.829 22.0376 212.658 22.1743C212.498 22.311 212.418 22.4762 212.418 22.6699C212.418 22.7725 212.464 22.9832 212.555 23.3022L216.024 31.9326H216.127L219.425 23.3022C219.539 23.0174 219.596 22.7725 219.596 22.5674C219.596 22.0433 218.941 21.7357 217.631 21.6445C217.585 21.4622 217.562 21.3369 217.562 21.2686C217.562 21.166 217.585 21.0236 217.631 20.8413C218.964 20.9097 219.796 20.9438 220.126 20.9438C221.083 20.9438 222.296 20.9097 223.766 20.8413C223.812 20.978 223.834 21.0977 223.834 21.2002C223.834 21.2686 223.812 21.4167 223.766 21.6445C222.342 21.7015 221.419 22.2541 220.998 23.3022L215.717 35.9316H215.751L213.854 40.9048C213.148 42.7505 212.487 43.998 211.872 44.6475C211.268 45.2969 210.493 45.6216 209.547 45.6216C208.784 45.6216 208.146 45.3937 207.633 44.938C207.132 44.4823 206.881 43.8841 206.881 43.1436C206.881 42.4714 207.069 41.9416 207.445 41.5542C207.821 41.1668 208.288 40.9731 208.847 40.9731C209.359 40.9731 209.752 41.127 210.026 41.4346C210.311 41.7422 210.453 42.0897 210.453 42.4771C210.453 43.0239 210.208 43.4569 209.718 43.7759C209.775 44.0265 209.963 44.1519 210.282 44.1519C210.647 44.1519 210.989 43.9411 211.308 43.5195C211.627 43.1094 212.042 42.2264 212.555 40.8706L214.452 36L209.12 23.3022C208.995 23.0174 208.818 22.7725 208.59 22.5674C208.362 22.3509 208.083 22.1857 207.753 22.0718C207.434 21.9465 207.166 21.861 206.95 21.8154C206.733 21.7585 206.465 21.7015 206.146 21.6445C206.101 21.5534 206.078 21.4281 206.078 21.2686C206.078 21.0977 206.101 20.9552 206.146 20.8413Z" fill="white"/>
</svg>
